# MagicaVoxel @ Ephtracy

# group
o 

# material
mtllib sand.mtl
usemtl palette

# normals
vn -1 0 0
vn 1 0 0
vn 0 0 1
vn 0 0 -1
vn 0 -1 0
vn 0 1 0

# texcoords
vt 0.0644531 0.5
vt 0.146484 0.5
vt 0.337891 0.5
vt 0.400391 0.5
vt 0.427734 0.5
vt 0.771484 0.5
vt 0.927734 0.5

# verts
v 0 2 0
v 0 2 -2
v 0 2.3 0
v 0 2.3 -2
v 0.2 2.2 -1.1
v 0.2 2.2 -1.4
v 0.2 2.3 -1.1
v 0.2 2.3 -1.4
v 0.3 2.2 -1
v 0.3 2.2 -1.1
v 0.3 2.2 -1.4
v 0.3 2.2 -1.5
v 0.3 2.3 -1
v 0.3 2.3 -1.1
v 0.3 2.3 -1.4
v 0.3 2.3 -1.5
v 0.3 2.5 -1.1
v 0.3 2.5 -1.2
v 0.3 2.5 -1.3
v 0.3 2.5 -1.4
v 0.3 2.6 -1.2
v 0.3 2.6 -1.3
v 0.4 2.5 -1.1
v 0.4 2.5 -1.2
v 0.4 2.5 -1.3
v 0.4 2.5 -1.4
v 0.4 2.6 -1.1
v 0.4 2.6 -1.2
v 0.4 2.6 -1.3
v 0.4 2.6 -1.4
v 0.4 2.7 -1.1
v 0.4 2.7 -1.2
v 0.4 2.7 -1.3
v 0.4 2.8 -1
v 0.4 2.8 -1.1
v 0.4 2.9 -1
v 0.4 2.9 -1.3
v 1.1 2.2 -1.4
v 1.1 2.2 -1.7
v 1.1 2.3 -1.4
v 1.1 2.3 -1.7
v 1.2 2.3 -1.4
v 1.2 2.3 -1.7
v 1.2 2.4 -1.4
v 1.2 2.4 -1.7
v 1.3 2.2 -0.5
v 1.3 2.2 -0.8
v 1.3 2.3 -0.5
v 1.3 2.3 -0.6
v 1.3 2.3 -0.7
v 1.3 2.3 -0.8
v 1.3 2.5 -0.5
v 1.3 2.5 -0.6
v 1.3 2.5 -0.7
v 1.3 2.5 -0.8
v 1.3 2.6 -0.5
v 1.3 2.6 -0.8
v 1.9 2.2 -0.1
v 1.9 2.2 -1.9
v 1.9 2.3 -0.1
v 1.9 2.3 -1.9
v 0.1 2.2 -0.1
v 0.1 2.2 -1.9
v 0.1 2.3 -0.1
v 0.1 2.3 -1.9
v 0.5 2.5 -1.1
v 0.5 2.5 -1.2
v 0.5 2.5 -1.3
v 0.5 2.5 -1.4
v 0.5 2.6 -1.1
v 0.5 2.6 -1.2
v 0.5 2.6 -1.3
v 0.5 2.6 -1.4
v 0.5 2.7 -1.1
v 0.5 2.7 -1.2
v 0.5 2.7 -1.3
v 0.5 2.8 -1
v 0.5 2.8 -1.1
v 0.5 2.9 -1
v 0.5 2.9 -1.3
v 0.6 2.2 -1
v 0.6 2.2 -1.1
v 0.6 2.2 -1.4
v 0.6 2.2 -1.5
v 0.6 2.3 -1
v 0.6 2.3 -1.1
v 0.6 2.3 -1.4
v 0.6 2.3 -1.5
v 0.6 2.5 -1.1
v 0.6 2.5 -1.2
v 0.6 2.5 -1.3
v 0.6 2.5 -1.4
v 0.6 2.6 -1.2
v 0.6 2.6 -1.3
v 0.7 2.2 -1.1
v 0.7 2.2 -1.4
v 0.7 2.3 -1.1
v 0.7 2.3 -1.4
v 1.4 2.2 -0.5
v 1.4 2.2 -0.8
v 1.4 2.3 -0.5
v 1.4 2.3 -0.6
v 1.4 2.3 -0.7
v 1.4 2.3 -0.8
v 1.4 2.5 -0.5
v 1.4 2.5 -0.6
v 1.4 2.5 -0.7
v 1.4 2.5 -0.8
v 1.4 2.6 -0.5
v 1.4 2.6 -0.8
v 1.5 2.3 -1.4
v 1.5 2.3 -1.5
v 1.5 2.3 -1.6
v 1.5 2.3 -1.7
v 1.5 2.4 -1.4
v 1.5 2.4 -1.7
v 1.6 2.2 -1.4
v 1.6 2.2 -1.5
v 1.6 2.2 -1.6
v 1.6 2.2 -1.7
v 1.6 2.3 -1.4
v 1.6 2.3 -1.5
v 1.6 2.3 -1.6
v 1.6 2.3 -1.7
v 2 2 0
v 2 2 -2
v 2 2.3 0
v 2 2.3 -2
v 0 2 0
v 0 2.3 0
v 2 2 0
v 2 2.3 0
v 1.3 2.2 -0.5
v 1.3 2.3 -0.5
v 1.3 2.5 -0.5
v 1.3 2.6 -0.5
v 1.4 2.2 -0.5
v 1.4 2.3 -0.5
v 1.4 2.5 -0.5
v 1.4 2.6 -0.5
v 1.3 2.3 -0.6
v 1.3 2.5 -0.6
v 1.4 2.3 -0.6
v 1.4 2.5 -0.6
v 0.3 2.2 -1
v 0.3 2.3 -1
v 0.4 2.8 -1
v 0.4 2.9 -1
v 0.5 2.8 -1
v 0.5 2.9 -1
v 0.6 2.2 -1
v 0.6 2.3 -1
v 0.2 2.2 -1.1
v 0.2 2.3 -1.1
v 0.3 2.2 -1.1
v 0.3 2.3 -1.1
v 0.3 2.5 -1.1
v 0.4 2.5 -1.1
v 0.4 2.6 -1.1
v 0.4 2.7 -1.1
v 0.4 2.8 -1.1
v 0.5 2.5 -1.1
v 0.5 2.6 -1.1
v 0.5 2.7 -1.1
v 0.5 2.8 -1.1
v 0.6 2.2 -1.1
v 0.6 2.3 -1.1
v 0.6 2.5 -1.1
v 0.7 2.2 -1.1
v 0.7 2.3 -1.1
v 0.3 2.5 -1.2
v 0.3 2.6 -1.2
v 0.4 2.5 -1.2
v 0.4 2.6 -1.2
v 0.4 2.7 -1.2
v 0.5 2.5 -1.2
v 0.5 2.6 -1.2
v 0.5 2.7 -1.2
v 0.6 2.5 -1.2
v 0.6 2.6 -1.2
v 1.1 2.2 -1.4
v 1.1 2.3 -1.4
v 1.2 2.2 -1.4
v 1.2 2.3 -1.4
v 1.2 2.4 -1.4
v 1.3 2.2 -1.4
v 1.3 2.3 -1.4
v 1.4 2.2 -1.4
v 1.4 2.3 -1.4
v 1.5 2.2 -1.4
v 1.5 2.3 -1.4
v 1.5 2.4 -1.4
v 1.6 2.2 -1.4
v 1.6 2.3 -1.4
v 0.1 2.2 -1.9
v 0.1 2.3 -1.9
v 1.9 2.2 -1.9
v 1.9 2.3 -1.9
v 0.1 2.2 -0.1
v 0.1 2.3 -0.1
v 1.9 2.2 -0.1
v 1.9 2.3 -0.1
v 1.3 2.3 -0.7
v 1.3 2.5 -0.7
v 1.4 2.3 -0.7
v 1.4 2.5 -0.7
v 1.3 2.2 -0.8
v 1.3 2.3 -0.8
v 1.3 2.5 -0.8
v 1.3 2.6 -0.8
v 1.4 2.2 -0.8
v 1.4 2.3 -0.8
v 1.4 2.5 -0.8
v 1.4 2.6 -0.8
v 0.3 2.5 -1.3
v 0.3 2.6 -1.3
v 0.4 2.5 -1.3
v 0.4 2.6 -1.3
v 0.4 2.7 -1.3
v 0.4 2.9 -1.3
v 0.5 2.5 -1.3
v 0.5 2.6 -1.3
v 0.5 2.7 -1.3
v 0.5 2.9 -1.3
v 0.6 2.5 -1.3
v 0.6 2.6 -1.3
v 0.2 2.2 -1.4
v 0.2 2.3 -1.4
v 0.3 2.2 -1.4
v 0.3 2.3 -1.4
v 0.3 2.5 -1.4
v 0.4 2.5 -1.4
v 0.4 2.6 -1.4
v 0.5 2.5 -1.4
v 0.5 2.6 -1.4
v 0.6 2.2 -1.4
v 0.6 2.3 -1.4
v 0.6 2.5 -1.4
v 0.7 2.2 -1.4
v 0.7 2.3 -1.4
v 0.3 2.2 -1.5
v 0.3 2.3 -1.5
v 0.6 2.2 -1.5
v 0.6 2.3 -1.5
v 1.1 2.2 -1.7
v 1.1 2.3 -1.7
v 1.2 2.2 -1.7
v 1.2 2.3 -1.7
v 1.2 2.4 -1.7
v 1.3 2.2 -1.7
v 1.3 2.3 -1.7
v 1.4 2.2 -1.7
v 1.4 2.3 -1.7
v 1.5 2.2 -1.7
v 1.5 2.3 -1.7
v 1.5 2.4 -1.7
v 1.6 2.2 -1.7
v 1.6 2.3 -1.7
v 0 2 -2
v 0 2.3 -2
v 2 2 -2
v 2 2.3 -2
v 0 2 0
v 2 2 0
v 0 2 -2
v 2 2 -2
v 1.3 2.5 -0.5
v 1.4 2.5 -0.5
v 1.3 2.5 -0.6
v 1.4 2.5 -0.6
v 1.3 2.5 -0.7
v 1.4 2.5 -0.7
v 1.3 2.5 -0.8
v 1.4 2.5 -0.8
v 0.4 2.7 -1.1
v 0.5 2.7 -1.1
v 0.4 2.7 -1.2
v 0.5 2.7 -1.2
v 0.4 2.8 -1
v 0.5 2.8 -1
v 0.4 2.8 -1.1
v 0.5 2.8 -1.1
v 0.1 2.2 -0.1
v 1.9 2.2 -0.1
v 1.3 2.2 -0.5
v 1.4 2.2 -0.5
v 1.3 2.2 -0.8
v 1.4 2.2 -0.8
v 0.3 2.2 -1
v 0.6 2.2 -1
v 0.2 2.2 -1.1
v 0.3 2.2 -1.1
v 0.6 2.2 -1.1
v 0.7 2.2 -1.1
v 0.2 2.2 -1.4
v 0.3 2.2 -1.4
v 0.6 2.2 -1.4
v 0.7 2.2 -1.4
v 1.1 2.2 -1.4
v 1.2 2.2 -1.4
v 1.3 2.2 -1.4
v 1.4 2.2 -1.4
v 1.5 2.2 -1.4
v 1.6 2.2 -1.4
v 0.3 2.2 -1.5
v 0.6 2.2 -1.5
v 1.6 2.2 -1.5
v 1.6 2.2 -1.6
v 1.1 2.2 -1.7
v 1.2 2.2 -1.7
v 1.3 2.2 -1.7
v 1.4 2.2 -1.7
v 1.5 2.2 -1.7
v 1.6 2.2 -1.7
v 0.1 2.2 -1.9
v 1.9 2.2 -1.9
v 0 2.3 0
v 2 2.3 0
v 0.1 2.3 -0.1
v 1.9 2.3 -0.1
v 1.3 2.3 -0.5
v 1.4 2.3 -0.5
v 1.3 2.3 -0.6
v 1.4 2.3 -0.6
v 1.3 2.3 -0.7
v 1.4 2.3 -0.7
v 1.3 2.3 -0.8
v 1.4 2.3 -0.8
v 0.3 2.3 -1
v 0.6 2.3 -1
v 0.2 2.3 -1.1
v 0.3 2.3 -1.1
v 0.6 2.3 -1.1
v 0.7 2.3 -1.1
v 0.2 2.3 -1.4
v 0.3 2.3 -1.4
v 0.6 2.3 -1.4
v 0.7 2.3 -1.4
v 1.1 2.3 -1.4
v 1.2 2.3 -1.4
v 1.5 2.3 -1.4
v 1.6 2.3 -1.4
v 0.3 2.3 -1.5
v 0.6 2.3 -1.5
v 1.5 2.3 -1.5
v 1.6 2.3 -1.5
v 1.5 2.3 -1.6
v 1.6 2.3 -1.6
v 1.1 2.3 -1.7
v 1.2 2.3 -1.7
v 1.5 2.3 -1.7
v 1.6 2.3 -1.7
v 0.1 2.3 -1.9
v 1.9 2.3 -1.9
v 0 2.3 -2
v 2 2.3 -2
v 1.2 2.4 -1.4
v 1.5 2.4 -1.4
v 1.2 2.4 -1.7
v 1.5 2.4 -1.7
v 0.3 2.5 -1.1
v 0.4 2.5 -1.1
v 0.5 2.5 -1.1
v 0.6 2.5 -1.1
v 0.3 2.5 -1.2
v 0.4 2.5 -1.2
v 0.5 2.5 -1.2
v 0.6 2.5 -1.2
v 0.3 2.5 -1.3
v 0.4 2.5 -1.3
v 0.5 2.5 -1.3
v 0.6 2.5 -1.3
v 0.3 2.5 -1.4
v 0.4 2.5 -1.4
v 0.5 2.5 -1.4
v 0.6 2.5 -1.4
v 1.3 2.6 -0.5
v 1.4 2.6 -0.5
v 1.3 2.6 -0.8
v 1.4 2.6 -0.8
v 0.4 2.6 -1.1
v 0.5 2.6 -1.1
v 0.3 2.6 -1.2
v 0.4 2.6 -1.2
v 0.5 2.6 -1.2
v 0.6 2.6 -1.2
v 0.3 2.6 -1.3
v 0.4 2.6 -1.3
v 0.5 2.6 -1.3
v 0.6 2.6 -1.3
v 0.4 2.6 -1.4
v 0.5 2.6 -1.4
v 0.4 2.9 -1
v 0.5 2.9 -1
v 0.4 2.9 -1.3
v 0.5 2.9 -1.3

# faces
f 3/6/1 2/6/1 1/6/1
f 4/6/1 2/6/1 3/6/1
f 7/4/1 6/4/1 5/4/1
f 8/4/1 6/4/1 7/4/1
f 13/4/1 10/4/1 9/4/1
f 14/4/1 10/4/1 13/4/1
f 15/4/1 12/4/1 11/4/1
f 16/4/1 12/4/1 15/4/1
f 17/4/1 15/4/1 14/4/1
f 18/4/1 15/4/1 17/4/1
f 19/4/1 15/4/1 18/4/1
f 20/4/1 15/4/1 19/4/1
f 21/4/1 19/4/1 18/4/1
f 22/4/1 19/4/1 21/4/1
f 27/4/1 24/4/1 23/4/1
f 28/4/1 24/4/1 27/4/1
f 29/4/1 26/4/1 25/4/1
f 30/4/1 26/4/1 29/4/1
f 32/3/1 29/3/1 28/3/1
f 33/3/1 29/3/1 32/3/1
f 35/2/1 32/2/1 31/2/1
f 35/2/1 33/2/1 32/2/1
f 36/2/1 35/2/1 34/2/1
f 37/2/1 33/2/1 35/2/1
f 37/2/1 35/2/1 36/2/1
f 40/1/1 39/1/1 38/1/1
f 41/1/1 39/1/1 40/1/1
f 44/1/1 43/1/1 42/1/1
f 45/1/1 43/1/1 44/1/1
f 48/5/1 47/5/1 46/5/1
f 49/5/1 47/5/1 48/5/1
f 50/5/1 47/5/1 49/5/1
f 51/5/1 47/5/1 50/5/1
f 53/5/1 50/5/1 49/5/1
f 54/5/1 50/5/1 53/5/1
f 56/5/1 53/5/1 52/5/1
f 56/5/1 55/5/1 54/5/1
f 56/5/1 54/5/1 53/5/1
f 57/5/1 55/5/1 56/5/1
f 60/6/1 59/6/1 58/6/1
f 61/6/1 59/6/1 60/6/1
f 62/6/2 63/6/2 64/6/2
f 64/6/2 63/6/2 65/6/2
f 66/4/2 67/4/2 70/4/2
f 70/4/2 67/4/2 71/4/2
f 68/4/2 69/4/2 72/4/2
f 72/4/2 69/4/2 73/4/2
f 71/3/2 72/3/2 75/3/2
f 75/3/2 72/3/2 76/3/2
f 74/2/2 75/2/2 78/2/2
f 75/2/2 76/2/2 78/2/2
f 77/2/2 78/2/2 79/2/2
f 78/2/2 76/2/2 80/2/2
f 79/2/2 78/2/2 80/2/2
f 81/4/2 82/4/2 85/4/2
f 85/4/2 82/4/2 86/4/2
f 83/4/2 84/4/2 87/4/2
f 87/4/2 84/4/2 88/4/2
f 86/4/2 87/4/2 89/4/2
f 89/4/2 87/4/2 90/4/2
f 90/4/2 87/4/2 91/4/2
f 91/4/2 87/4/2 92/4/2
f 90/4/2 91/4/2 93/4/2
f 93/4/2 91/4/2 94/4/2
f 95/4/2 96/4/2 97/4/2
f 97/4/2 96/4/2 98/4/2
f 99/5/2 100/5/2 101/5/2
f 101/5/2 100/5/2 102/5/2
f 102/5/2 100/5/2 103/5/2
f 103/5/2 100/5/2 104/5/2
f 102/5/2 103/5/2 106/5/2
f 106/5/2 103/5/2 107/5/2
f 105/5/2 106/5/2 109/5/2
f 107/5/2 108/5/2 109/5/2
f 106/5/2 107/5/2 109/5/2
f 109/5/2 108/5/2 110/5/2
f 111/1/2 112/1/2 115/1/2
f 113/1/2 114/1/2 115/1/2
f 112/1/2 113/1/2 115/1/2
f 115/1/2 114/1/2 116/1/2
f 117/2/2 118/2/2 121/2/2
f 118/1/2 119/1/2 122/1/2
f 121/2/2 118/2/2 122/2/2
f 119/2/2 120/2/2 123/2/2
f 122/1/2 119/1/2 123/1/2
f 123/2/2 120/2/2 124/2/2
f 125/6/2 126/6/2 127/6/2
f 127/6/2 126/6/2 128/6/2
f 131/6/3 130/6/3 129/6/3
f 132/6/3 130/6/3 131/6/3
f 137/5/3 134/5/3 133/5/3
f 138/5/3 134/5/3 137/5/3
f 139/5/3 136/5/3 135/5/3
f 140/5/3 136/5/3 139/5/3
f 143/5/3 142/5/3 141/5/3
f 144/5/3 142/5/3 143/5/3
f 149/2/3 148/2/3 147/2/3
f 150/2/3 148/2/3 149/2/3
f 151/4/3 146/4/3 145/4/3
f 152/4/3 146/4/3 151/4/3
f 155/4/3 154/4/3 153/4/3
f 156/4/3 154/4/3 155/4/3
f 158/4/3 157/4/3 156/4/3
f 162/4/3 158/4/3 156/4/3
f 162/4/3 159/4/3 158/4/3
f 163/4/3 159/4/3 162/4/3
f 164/2/3 161/2/3 160/2/3
f 165/2/3 161/2/3 164/2/3
f 167/4/3 162/4/3 156/4/3
f 168/4/3 162/4/3 167/4/3
f 169/4/3 167/4/3 166/4/3
f 170/4/3 167/4/3 169/4/3
f 173/4/3 172/4/3 171/4/3
f 174/4/3 172/4/3 173/4/3
f 177/3/3 175/3/3 174/3/3
f 178/3/3 175/3/3 177/3/3
f 179/4/3 177/4/3 176/4/3
f 180/4/3 177/4/3 179/4/3
f 183/1/3 182/1/3 181/1/3
f 184/1/3 182/1/3 183/1/3
f 186/7/3 184/7/3 183/7/3
f 187/1/3 185/1/3 184/1/3
f 187/7/3 184/7/3 186/7/3
f 188/1/3 187/1/3 186/1/3
f 189/1/3 185/1/3 187/1/3
f 189/1/3 187/1/3 188/1/3
f 190/7/3 189/7/3 188/7/3
f 191/1/3 185/1/3 189/1/3
f 191/7/3 189/7/3 190/7/3
f 192/1/3 185/1/3 191/1/3
f 193/2/3 191/2/3 190/2/3
f 194/2/3 191/2/3 193/2/3
f 197/6/3 196/6/3 195/6/3
f 198/6/3 196/6/3 197/6/3
f 199/6/4 200/6/4 201/6/4
f 201/6/4 200/6/4 202/6/4
f 203/5/4 204/5/4 205/5/4
f 205/5/4 204/5/4 206/5/4
f 207/5/4 208/5/4 211/5/4
f 211/5/4 208/5/4 212/5/4
f 209/5/4 210/5/4 213/5/4
f 213/5/4 210/5/4 214/5/4
f 215/4/4 216/4/4 217/4/4
f 217/4/4 216/4/4 218/4/4
f 218/3/4 219/3/4 222/3/4
f 219/2/4 220/2/4 223/2/4
f 222/3/4 219/3/4 223/3/4
f 223/2/4 220/2/4 224/2/4
f 221/4/4 222/4/4 225/4/4
f 225/4/4 222/4/4 226/4/4
f 227/4/4 228/4/4 229/4/4
f 229/4/4 228/4/4 230/4/4
f 230/4/4 231/4/4 232/4/4
f 230/4/4 232/4/4 234/4/4
f 232/4/4 233/4/4 234/4/4
f 234/4/4 233/4/4 235/4/4
f 230/4/4 234/4/4 237/4/4
f 237/4/4 234/4/4 238/4/4
f 236/4/4 237/4/4 239/4/4
f 239/4/4 237/4/4 240/4/4
f 241/4/4 242/4/4 243/4/4
f 243/4/4 242/4/4 244/4/4
f 245/1/4 246/1/4 247/1/4
f 247/1/4 246/1/4 248/1/4
f 247/7/4 248/7/4 250/7/4
f 248/1/4 249/1/4 251/1/4
f 250/7/4 248/7/4 251/7/4
f 250/1/4 251/1/4 252/1/4
f 251/1/4 249/1/4 253/1/4
f 252/1/4 251/1/4 253/1/4
f 252/7/4 253/7/4 254/7/4
f 253/1/4 249/1/4 255/1/4
f 254/7/4 253/7/4 255/7/4
f 255/1/4 249/1/4 256/1/4
f 254/2/4 255/2/4 257/2/4
f 257/2/4 255/2/4 258/2/4
f 259/6/4 260/6/4 261/6/4
f 261/6/4 260/6/4 262/6/4
f 265/6/5 264/6/5 263/6/5
f 266/6/5 264/6/5 265/6/5
f 269/5/5 268/5/5 267/5/5
f 270/5/5 268/5/5 269/5/5
f 273/5/5 272/5/5 271/5/5
f 274/5/5 272/5/5 273/5/5
f 277/2/5 276/2/5 275/2/5
f 278/2/5 276/2/5 277/2/5
f 281/2/5 280/2/5 279/2/5
f 282/2/5 280/2/5 281/2/5
f 283/4/6 284/4/6 285/4/6
f 285/4/6 284/4/6 286/4/6
f 283/4/6 285/4/6 287/4/6
f 286/4/6 284/4/6 288/4/6
f 283/4/6 287/4/6 289/4/6
f 287/4/6 288/4/6 289/4/6
f 289/4/6 288/4/6 290/4/6
f 283/4/6 289/4/6 291/4/6
f 291/4/6 289/4/6 292/4/6
f 290/4/6 288/4/6 293/4/6
f 293/4/6 288/4/6 294/4/6
f 283/4/6 291/4/6 295/4/6
f 294/4/6 288/4/6 298/4/6
f 298/4/6 288/4/6 299/4/6
f 299/4/6 288/4/6 300/4/6
f 300/4/6 288/4/6 301/4/6
f 288/4/6 284/4/6 302/4/6
f 301/4/6 288/4/6 302/4/6
f 302/4/6 284/4/6 303/4/6
f 303/4/6 284/4/6 304/4/6
f 295/4/6 296/4/6 305/4/6
f 298/4/6 299/4/6 306/4/6
f 297/4/6 298/4/6 306/4/6
f 304/4/6 284/4/6 307/4/6
f 307/4/6 284/4/6 308/4/6
f 305/4/6 306/4/6 309/4/6
f 306/4/6 299/4/6 309/4/6
f 308/4/6 284/4/6 314/4/6
f 312/4/6 313/4/6 315/4/6
f 313/4/6 314/4/6 315/4/6
f 295/4/6 305/4/6 315/4/6
f 283/4/6 295/4/6 315/4/6
f 311/4/6 312/4/6 315/4/6
f 310/4/6 311/4/6 315/4/6
f 309/4/6 310/4/6 315/4/6
f 305/4/6 309/4/6 315/4/6
f 314/4/6 284/4/6 316/4/6
f 315/4/6 314/4/6 316/4/6
f 317/6/6 318/6/6 319/6/6
f 319/6/6 318/6/6 320/6/6
f 321/5/6 322/5/6 323/5/6
f 323/5/6 322/5/6 324/5/6
f 325/5/6 326/5/6 327/5/6
f 327/5/6 326/5/6 328/5/6
f 329/4/6 330/4/6 332/4/6
f 332/4/6 330/4/6 333/4/6
f 331/4/6 332/4/6 335/4/6
f 335/4/6 332/4/6 336/4/6
f 333/4/6 334/4/6 337/4/6
f 337/4/6 334/4/6 338/4/6
f 336/4/6 337/4/6 343/4/6
f 343/4/6 337/4/6 344/4/6
f 341/2/6 342/2/6 345/2/6
f 345/2/6 342/2/6 346/2/6
f 345/1/6 346/1/6 347/1/6
f 347/1/6 346/1/6 348/1/6
f 339/1/6 340/1/6 349/1/6
f 349/1/6 340/1/6 350/1/6
f 347/2/6 348/2/6 351/2/6
f 351/2/6 348/2/6 352/2/6
f 317/6/6 319/6/6 353/6/6
f 320/6/6 318/6/6 354/6/6
f 317/6/6 353/6/6 355/6/6
f 353/6/6 354/6/6 355/6/6
f 354/6/6 318/6/6 356/6/6
f 355/6/6 354/6/6 356/6/6
f 357/1/6 358/1/6 359/1/6
f 359/1/6 358/1/6 360/1/6
f 361/4/6 362/4/6 365/4/6
f 365/4/6 362/4/6 366/4/6
f 363/4/6 364/4/6 367/4/6
f 367/4/6 364/4/6 368/4/6
f 369/4/6 370/4/6 373/4/6
f 373/4/6 370/4/6 374/4/6
f 371/4/6 372/4/6 375/4/6
f 375/4/6 372/4/6 376/4/6
f 377/5/6 378/5/6 379/5/6
f 379/5/6 378/5/6 380/5/6
f 381/4/6 382/4/6 384/4/6
f 384/4/6 382/4/6 385/4/6
f 383/4/6 384/4/6 387/4/6
f 387/4/6 384/4/6 388/4/6
f 385/4/6 386/4/6 389/4/6
f 389/4/6 386/4/6 390/4/6
f 388/4/6 389/4/6 391/4/6
f 391/4/6 389/4/6 392/4/6
f 393/2/6 394/2/6 395/2/6
f 395/2/6 394/2/6 396/2/6
