# MagicaVoxel @ Ephtracy

# group
o 

# material
mtllib golub.mtl
usemtl palette

# normals
vn -1 0 0
vn 1 0 0
vn 0 0 1
vn 0 0 -1
vn 0 -1 0
vn 0 1 0

# texcoords
vt 0.0214844 0.5
vt 0.373047 0.5
vt 0.919922 0.5
vt 0.978516 0.5
vt 0.986328 0.5

# verts
v 1.7 2 -1.8
v 1.7 2 -1.9
v 1.7 2.1 -1.3
v 1.7 2.1 -1.8
v 1.7 2.1 -1.9
v 1.7 2.1 -2.5
v 1.7 2.2 -1.2
v 1.7 2.2 -1.3
v 1.7 2.2 -1.6
v 1.7 2.2 -2
v 1.7 2.2 -2.4
v 1.7 2.2 -2.5
v 1.7 2.3 -1.5
v 1.7 2.3 -1.6
v 1.7 2.3 -1.9
v 1.7 2.3 -2
v 1.7 2.3 -2.3
v 1.7 2.3 -2.4
v 1.7 2.4 -1.5
v 1.7 2.4 -1.9
v 1.7 2.4 -2.1
v 1.7 2.4 -2.3
v 1.7 2.5 -1.3
v 1.7 2.5 -1.4
v 1.7 2.5 -1.6
v 1.7 2.5 -2.1
v 1.7 2.6 -1.3
v 1.7 2.6 -1.4
v 1.7 2.7 -1.2
v 1.7 2.7 -1.6
v 1.8 2.5 -1.6
v 1.8 2.5 -1.7
v 1.8 2.6 -1.6
v 1.8 2.6 -1.7
v 1.9 2.4 -1.1
v 1.9 2.4 -1.2
v 1.9 2.5 -1.1
v 1.9 2.5 -1.2
v 2.1 2 -1.8
v 2.1 2 -1.9
v 2.1 2.1 -1.8
v 2.1 2.1 -1.9
v 1.8 2 -1.8
v 1.8 2 -1.9
v 1.8 2.1 -1.8
v 1.8 2.1 -1.9
v 2 2.4 -1.1
v 2 2.4 -1.2
v 2 2.5 -1.1
v 2 2.5 -1.2
v 2.1 2.5 -1.6
v 2.1 2.5 -1.7
v 2.1 2.6 -1.6
v 2.1 2.6 -1.7
v 2.2 2 -1.8
v 2.2 2 -1.9
v 2.2 2.1 -1.3
v 2.2 2.1 -1.8
v 2.2 2.1 -1.9
v 2.2 2.1 -2.5
v 2.2 2.2 -1.2
v 2.2 2.2 -1.3
v 2.2 2.2 -1.5
v 2.2 2.2 -1.9
v 2.2 2.2 -2.4
v 2.2 2.2 -2.5
v 2.2 2.3 -1.4
v 2.2 2.3 -1.5
v 2.2 2.3 -1.8
v 2.2 2.3 -1.9
v 2.2 2.3 -2.3
v 2.2 2.3 -2.4
v 2.2 2.4 -1.4
v 2.2 2.4 -1.8
v 2.2 2.4 -2.1
v 2.2 2.4 -2.3
v 2.2 2.5 -1.3
v 2.2 2.5 -1.4
v 2.2 2.5 -1.6
v 2.2 2.5 -2.1
v 2.2 2.6 -1.3
v 2.2 2.6 -1.4
v 2.2 2.7 -1.2
v 2.2 2.7 -1.6
v 1.9 2.4 -1.1
v 1.9 2.5 -1.1
v 2 2.4 -1.1
v 2 2.5 -1.1
v 1.7 2.2 -1.2
v 1.7 2.7 -1.2
v 1.9 2.4 -1.2
v 1.9 2.5 -1.2
v 2 2.4 -1.2
v 2 2.5 -1.2
v 2.2 2.2 -1.2
v 2.2 2.7 -1.2
v 1.7 2.1 -1.3
v 1.7 2.2 -1.3
v 2.2 2.1 -1.3
v 2.2 2.2 -1.3
v 1.7 2 -1.8
v 1.7 2.1 -1.8
v 1.8 2 -1.8
v 1.8 2.1 -1.8
v 2.1 2 -1.8
v 2.1 2.1 -1.8
v 2.2 2 -1.8
v 2.2 2.1 -1.8
v 1.7 2.5 -1.6
v 1.7 2.7 -1.6
v 1.8 2.5 -1.6
v 1.8 2.6 -1.6
v 2.1 2.5 -1.6
v 2.1 2.6 -1.6
v 2.2 2.5 -1.6
v 2.2 2.7 -1.6
v 1.8 2.5 -1.7
v 1.8 2.6 -1.7
v 2.1 2.5 -1.7
v 2.1 2.6 -1.7
v 1.7 2 -1.9
v 1.7 2.1 -1.9
v 1.8 2 -1.9
v 1.8 2.1 -1.9
v 2.1 2 -1.9
v 2.1 2.1 -1.9
v 2.2 2 -1.9
v 2.2 2.1 -1.9
v 1.7 2.4 -2.1
v 1.7 2.5 -2.1
v 2.2 2.4 -2.1
v 2.2 2.5 -2.1
v 1.7 2.3 -2.3
v 1.7 2.4 -2.3
v 2.2 2.3 -2.3
v 2.2 2.4 -2.3
v 1.7 2.2 -2.4
v 1.7 2.3 -2.4
v 2.2 2.2 -2.4
v 2.2 2.3 -2.4
v 1.7 2.1 -2.5
v 1.7 2.2 -2.5
v 2.2 2.1 -2.5
v 2.2 2.2 -2.5
v 1.7 2 -1.8
v 1.8 2 -1.8
v 2.1 2 -1.8
v 2.2 2 -1.8
v 1.7 2 -1.9
v 1.8 2 -1.9
v 2.1 2 -1.9
v 2.2 2 -1.9
v 1.7 2.1 -1.3
v 2.2 2.1 -1.3
v 1.7 2.1 -1.8
v 1.8 2.1 -1.8
v 2.1 2.1 -1.8
v 2.2 2.1 -1.8
v 1.7 2.1 -1.9
v 1.8 2.1 -1.9
v 2.1 2.1 -1.9
v 2.2 2.1 -1.9
v 1.7 2.1 -2.5
v 2.2 2.1 -2.5
v 1.7 2.2 -1.2
v 2.2 2.2 -1.2
v 1.7 2.2 -1.3
v 2.2 2.2 -1.3
v 1.9 2.4 -1.1
v 2 2.4 -1.1
v 1.9 2.4 -1.2
v 2 2.4 -1.2
v 1.7 2.2 -2.4
v 2.2 2.2 -2.4
v 1.7 2.2 -2.5
v 2.2 2.2 -2.5
v 1.7 2.3 -2.3
v 2.2 2.3 -2.3
v 1.7 2.3 -2.4
v 2.2 2.3 -2.4
v 1.7 2.4 -2.1
v 2.2 2.4 -2.1
v 1.7 2.4 -2.3
v 2.2 2.4 -2.3
v 1.9 2.5 -1.1
v 2 2.5 -1.1
v 1.9 2.5 -1.2
v 2 2.5 -1.2
v 1.7 2.5 -1.6
v 1.8 2.5 -1.6
v 2.1 2.5 -1.6
v 2.2 2.5 -1.6
v 1.8 2.5 -1.7
v 2.1 2.5 -1.7
v 1.7 2.5 -2.1
v 2.2 2.5 -2.1
v 1.8 2.6 -1.6
v 2.1 2.6 -1.6
v 1.8 2.6 -1.7
v 2.1 2.6 -1.7
v 1.7 2.7 -1.2
v 2.2 2.7 -1.2
v 1.7 2.7 -1.6
v 2.2 2.7 -1.6

# faces
f 4/1/1 2/1/1 1/1/1
f 5/1/1 2/1/1 4/1/1
f 8/3/1 4/3/1 3/3/1
f 8/3/1 6/3/1 5/3/1
f 8/3/1 5/3/1 4/3/1
f 9/3/1 6/3/1 8/3/1
f 10/3/1 6/3/1 9/3/1
f 11/3/1 6/3/1 10/3/1
f 12/3/1 6/3/1 11/3/1
f 13/3/1 8/3/1 7/3/1
f 13/3/1 9/3/1 8/3/1
f 14/4/1 10/4/1 9/4/1
f 14/3/1 9/3/1 13/3/1
f 15/4/1 10/4/1 14/4/1
f 16/3/1 11/3/1 10/3/1
f 16/4/1 10/4/1 15/4/1
f 17/3/1 11/3/1 16/3/1
f 18/3/1 11/3/1 17/3/1
f 19/4/1 15/4/1 14/4/1
f 19/3/1 13/3/1 7/3/1
f 19/4/1 14/4/1 13/4/1
f 20/3/1 17/3/1 16/3/1
f 20/4/1 15/4/1 19/4/1
f 20/3/1 16/3/1 15/3/1
f 21/3/1 17/3/1 20/3/1
f 22/3/1 17/3/1 21/3/1
f 23/3/1 19/3/1 7/3/1
f 23/3/1 20/3/1 19/3/1
f 23/3/1 21/3/1 20/3/1
f 24/3/1 21/3/1 23/3/1
f 25/3/1 21/3/1 24/3/1
f 26/3/1 21/3/1 25/3/1
f 27/3/1 23/3/1 7/3/1
f 27/5/1 24/5/1 23/5/1
f 28/3/1 25/3/1 24/3/1
f 28/5/1 24/5/1 27/5/1
f 29/3/1 27/3/1 7/3/1
f 29/3/1 28/3/1 27/3/1
f 30/3/1 25/3/1 28/3/1
f 30/3/1 28/3/1 29/3/1
f 33/3/1 32/3/1 31/3/1
f 34/3/1 32/3/1 33/3/1
f 37/2/1 36/2/1 35/2/1
f 38/2/1 36/2/1 37/2/1
f 41/1/1 40/1/1 39/1/1
f 42/1/1 40/1/1 41/1/1
f 43/1/2 44/1/2 45/1/2
f 45/1/2 44/1/2 46/1/2
f 47/2/2 48/2/2 49/2/2
f 49/2/2 48/2/2 50/2/2
f 51/3/2 52/3/2 53/3/2
f 53/3/2 52/3/2 54/3/2
f 55/1/2 56/1/2 58/1/2
f 58/1/2 56/1/2 59/1/2
f 57/3/2 58/3/2 62/3/2
f 59/3/2 60/3/2 62/3/2
f 58/3/2 59/3/2 62/3/2
f 62/3/2 60/3/2 63/3/2
f 63/3/2 60/3/2 64/3/2
f 64/3/2 60/3/2 65/3/2
f 65/3/2 60/3/2 66/3/2
f 61/3/2 62/3/2 67/3/2
f 62/3/2 63/3/2 67/3/2
f 63/4/2 64/4/2 68/4/2
f 67/3/2 63/3/2 68/3/2
f 68/4/2 64/4/2 69/4/2
f 64/3/2 65/3/2 70/3/2
f 69/4/2 64/4/2 70/4/2
f 70/3/2 65/3/2 71/3/2
f 71/3/2 65/3/2 72/3/2
f 68/4/2 69/4/2 73/4/2
f 61/3/2 67/3/2 73/3/2
f 67/4/2 68/4/2 73/4/2
f 70/3/2 71/3/2 74/3/2
f 73/4/2 69/4/2 74/4/2
f 69/3/2 70/3/2 74/3/2
f 74/3/2 71/3/2 75/3/2
f 75/3/2 71/3/2 76/3/2
f 61/3/2 73/3/2 77/3/2
f 73/3/2 74/3/2 77/3/2
f 74/3/2 75/3/2 77/3/2
f 77/3/2 75/3/2 78/3/2
f 78/3/2 75/3/2 79/3/2
f 79/3/2 75/3/2 80/3/2
f 61/3/2 77/3/2 81/3/2
f 77/5/2 78/5/2 81/5/2
f 78/3/2 79/3/2 82/3/2
f 81/5/2 78/5/2 82/5/2
f 61/3/2 81/3/2 83/3/2
f 81/3/2 82/3/2 83/3/2
f 82/3/2 79/3/2 84/3/2
f 83/3/2 82/3/2 84/3/2
f 87/2/3 86/2/3 85/2/3
f 88/2/3 86/2/3 87/2/3
f 91/3/3 90/3/3 89/3/3
f 92/3/3 90/3/3 91/3/3
f 93/3/3 91/3/3 89/3/3
f 94/3/3 90/3/3 92/3/3
f 95/3/3 93/3/3 89/3/3
f 95/3/3 94/3/3 93/3/3
f 96/3/3 90/3/3 94/3/3
f 96/3/3 94/3/3 95/3/3
f 99/3/3 98/3/3 97/3/3
f 100/3/3 98/3/3 99/3/3
f 103/1/3 102/1/3 101/1/3
f 104/1/3 102/1/3 103/1/3
f 107/1/3 106/1/3 105/1/3
f 108/1/3 106/1/3 107/1/3
f 109/3/4 110/3/4 111/3/4
f 111/3/4 110/3/4 112/3/4
f 112/3/4 110/3/4 114/3/4
f 113/3/4 114/3/4 115/3/4
f 114/3/4 110/3/4 116/3/4
f 115/3/4 114/3/4 116/3/4
f 117/3/4 118/3/4 119/3/4
f 119/3/4 118/3/4 120/3/4
f 121/1/4 122/1/4 123/1/4
f 123/1/4 122/1/4 124/1/4
f 125/1/4 126/1/4 127/1/4
f 127/1/4 126/1/4 128/1/4
f 129/3/4 130/3/4 131/3/4
f 131/3/4 130/3/4 132/3/4
f 133/3/4 134/3/4 135/3/4
f 135/3/4 134/3/4 136/3/4
f 137/3/4 138/3/4 139/3/4
f 139/3/4 138/3/4 140/3/4
f 141/3/4 142/3/4 143/3/4
f 143/3/4 142/3/4 144/3/4
f 149/1/5 146/1/5 145/1/5
f 150/1/5 146/1/5 149/1/5
f 151/1/5 148/1/5 147/1/5
f 152/1/5 148/1/5 151/1/5
f 155/3/5 154/3/5 153/3/5
f 156/3/5 154/3/5 155/3/5
f 157/3/5 154/3/5 156/3/5
f 158/3/5 154/3/5 157/3/5
f 160/3/5 157/3/5 156/3/5
f 161/3/5 157/3/5 160/3/5
f 163/3/5 160/3/5 159/3/5
f 163/3/5 162/3/5 161/3/5
f 163/3/5 161/3/5 160/3/5
f 164/3/5 162/3/5 163/3/5
f 167/3/5 166/3/5 165/3/5
f 168/3/5 166/3/5 167/3/5
f 171/2/5 170/2/5 169/2/5
f 172/2/5 170/2/5 171/2/5
f 173/3/6 174/3/6 175/3/6
f 175/3/6 174/3/6 176/3/6
f 177/3/6 178/3/6 179/3/6
f 179/3/6 178/3/6 180/3/6
f 181/3/6 182/3/6 183/3/6
f 183/3/6 182/3/6 184/3/6
f 185/2/6 186/2/6 187/2/6
f 187/2/6 186/2/6 188/2/6
f 189/3/6 190/3/6 193/3/6
f 191/3/6 192/3/6 194/3/6
f 189/3/6 193/3/6 195/3/6
f 193/3/6 194/3/6 195/3/6
f 194/3/6 192/3/6 196/3/6
f 195/3/6 194/3/6 196/3/6
f 197/3/6 198/3/6 199/3/6
f 199/3/6 198/3/6 200/3/6
f 201/3/6 202/3/6 203/3/6
f 203/3/6 202/3/6 204/3/6
