# MagicaVoxel @ Ephtracy

# group
o 

# material
mtllib mepes.mtl
usemtl palette

# normals
vn -1 0 0
vn 1 0 0
vn 0 0 1
vn 0 0 -1
vn 0 -1 0
vn 0 1 0

# texcoords
vt 0.0644531 0.5
vt 0.736328 0.5
vt 0.771484 0.5
vt 0.912109 0.5
vt 0.947266 0.5
vt 0.958984 0.5

# verts
v 1.3 2.4 -1.6
v 1.3 2.4 -2
v 1.3 2.4 -2.6
v 1.3 2.4 -3
v 1.3 2.5 -1.5
v 1.3 2.5 -1.6
v 1.3 2.5 -2
v 1.3 2.5 -2.6
v 1.3 2.5 -3
v 1.3 2.5 -3.2
v 1.3 2.6 -2.1
v 1.3 2.6 -2.5
v 1.3 2.6 -3.2
v 1.3 2.6 -3.3
v 1.3 2.7 -2.3
v 1.3 2.7 -2.5
v 1.3 2.7 -3.2
v 1.3 2.7 -3.3
v 1.3 2.8 -2.1
v 1.3 2.8 -2.3
v 1.3 2.8 -3.2
v 1.3 2.8 -3.3
v 1.3 2.9 -2.1
v 1.3 2.9 -2.5
v 1.3 2.9 -3.2
v 1.3 2.9 -3.3
v 1.3 3 -1.5
v 1.3 3 -1.6
v 1.3 3 -2
v 1.3 3 -2.6
v 1.3 3 -3
v 1.3 3 -3.2
v 1.3 3.1 -1.6
v 1.3 3.1 -2
v 1.3 3.1 -2.6
v 1.3 3.1 -3
v 1.4 2.4 -1.5
v 1.4 2.4 -1.6
v 1.4 2.4 -2
v 1.4 2.4 -2.6
v 1.4 2.4 -3
v 1.4 2.4 -3.1
v 1.4 2.5 -1.4
v 1.4 2.5 -1.5
v 1.4 2.5 -1.6
v 1.4 2.5 -2
v 1.4 2.5 -2.6
v 1.4 2.5 -3
v 1.4 2.5 -3.1
v 1.4 2.5 -3.2
v 1.4 2.5 -3.3
v 1.4 2.6 -1.3
v 1.4 2.6 -1.4
v 1.4 2.6 -3.2
v 1.4 2.6 -3.3
v 1.4 2.9 -1.3
v 1.4 2.9 -1.4
v 1.4 2.9 -3.2
v 1.4 2.9 -3.3
v 1.4 3 -1.4
v 1.4 3 -1.5
v 1.4 3 -1.6
v 1.4 3 -2
v 1.4 3 -2.6
v 1.4 3 -3
v 1.4 3 -3.1
v 1.4 3 -3.2
v 1.4 3 -3.3
v 1.4 3.1 -1.5
v 1.4 3.1 -1.6
v 1.4 3.1 -2
v 1.4 3.1 -2.6
v 1.4 3.1 -3
v 1.4 3.1 -3.1
v 1.5 2.1 -1.9
v 1.5 2.1 -2.2
v 1.5 2.1 -2.4
v 1.5 2.1 -2.7
v 1.5 2.3 -1.9
v 1.5 2.3 -2.2
v 1.5 2.3 -2.4
v 1.5 2.3 -2.7
v 1.5 2.6 -1.2
v 1.5 2.6 -1.3
v 1.5 2.7 -1.1
v 1.5 2.7 -1.2
v 1.5 2.8 -1.1
v 1.5 2.8 -1.2
v 1.5 2.9 -1.2
v 1.5 2.9 -1.3
v 1.6 2.3 -1.9
v 1.6 2.3 -2.2
v 1.6 2.3 -2.4
v 1.6 2.3 -2.7
v 1.6 2.4 -1.9
v 1.6 2.4 -2
v 1.6 2.4 -2.2
v 1.6 2.4 -2.4
v 1.6 2.4 -2.6
v 1.6 2.4 -2.7
v 1.7 2.4 -3
v 1.7 2.4 -3.1
v 1.7 2.5 -3
v 1.7 2.5 -3.1
v 1.7 2.5 -3.2
v 1.7 2.5 -3.3
v 1.7 2.6 -3.1
v 1.7 2.6 -3.2
v 1.7 2.7 -3.2
v 1.7 2.7 -3.3
v 1.7 2.8 -3.2
v 1.7 2.8 -3.3
v 1.7 2.9 -3.1
v 1.7 2.9 -3.2
v 1.7 3 -3
v 1.7 3 -3.1
v 1.7 3 -3.2
v 1.7 3 -3.3
v 1.7 3.1 -3
v 1.7 3.1 -3.1
v 1.5 2.4 -3
v 1.5 2.4 -3.1
v 1.5 2.5 -3
v 1.5 2.5 -3.1
v 1.5 2.5 -3.2
v 1.5 2.5 -3.3
v 1.5 2.6 -3.1
v 1.5 2.6 -3.2
v 1.5 2.7 -3.2
v 1.5 2.7 -3.3
v 1.5 2.8 -3.2
v 1.5 2.8 -3.3
v 1.5 2.9 -3.1
v 1.5 2.9 -3.2
v 1.5 3 -3
v 1.5 3 -3.1
v 1.5 3 -3.2
v 1.5 3 -3.3
v 1.5 3.1 -3
v 1.5 3.1 -3.1
v 1.6 2.2 -1.9
v 1.6 2.2 -2.2
v 1.6 2.2 -2.4
v 1.6 2.2 -2.7
v 1.6 2.3 -1.9
v 1.6 2.3 -2.2
v 1.6 2.3 -2.4
v 1.6 2.3 -2.7
v 1.7 2.1 -1.9
v 1.7 2.1 -2.2
v 1.7 2.1 -2.4
v 1.7 2.1 -2.7
v 1.7 2.2 -1.9
v 1.7 2.2 -2.2
v 1.7 2.2 -2.4
v 1.7 2.2 -2.7
v 1.7 2.3 -1.9
v 1.7 2.3 -2.2
v 1.7 2.3 -2.4
v 1.7 2.3 -2.7
v 1.7 2.4 -1.9
v 1.7 2.4 -2
v 1.7 2.4 -2.2
v 1.7 2.4 -2.4
v 1.7 2.4 -2.6
v 1.7 2.4 -2.7
v 1.7 2.6 -1.2
v 1.7 2.6 -1.3
v 1.7 2.7 -1.1
v 1.7 2.7 -1.2
v 1.7 2.8 -1.1
v 1.7 2.8 -1.2
v 1.7 2.9 -1.2
v 1.7 2.9 -1.3
v 1.8 2.4 -1.5
v 1.8 2.4 -1.6
v 1.8 2.4 -2
v 1.8 2.4 -2.6
v 1.8 2.4 -3
v 1.8 2.4 -3.1
v 1.8 2.5 -1.4
v 1.8 2.5 -1.5
v 1.8 2.5 -1.6
v 1.8 2.5 -2
v 1.8 2.5 -2.6
v 1.8 2.5 -3
v 1.8 2.5 -3.1
v 1.8 2.5 -3.2
v 1.8 2.5 -3.3
v 1.8 2.6 -1.3
v 1.8 2.6 -1.4
v 1.8 2.6 -3.2
v 1.8 2.6 -3.3
v 1.8 2.9 -1.3
v 1.8 2.9 -1.4
v 1.8 2.9 -3.2
v 1.8 2.9 -3.3
v 1.8 3 -1.4
v 1.8 3 -1.5
v 1.8 3 -1.6
v 1.8 3 -2
v 1.8 3 -2.6
v 1.8 3 -3
v 1.8 3 -3.1
v 1.8 3 -3.2
v 1.8 3 -3.3
v 1.8 3.1 -1.5
v 1.8 3.1 -1.6
v 1.8 3.1 -2
v 1.8 3.1 -2.6
v 1.8 3.1 -3
v 1.8 3.1 -3.1
v 1.9 2.4 -1.6
v 1.9 2.4 -2
v 1.9 2.4 -2.6
v 1.9 2.4 -3
v 1.9 2.5 -1.5
v 1.9 2.5 -1.6
v 1.9 2.5 -2
v 1.9 2.5 -2.6
v 1.9 2.5 -3
v 1.9 2.5 -3.2
v 1.9 2.6 -3.2
v 1.9 2.6 -3.3
v 1.9 2.7 -1.9
v 1.9 2.7 -2
v 1.9 2.7 -2.1
v 1.9 2.7 -2.5
v 1.9 2.7 -2.6
v 1.9 2.7 -2.7
v 1.9 2.7 -3.2
v 1.9 2.7 -3.3
v 1.9 2.8 -3.2
v 1.9 2.8 -3.3
v 1.9 2.9 -1.9
v 1.9 2.9 -2
v 1.9 2.9 -2.1
v 1.9 2.9 -2.5
v 1.9 2.9 -2.6
v 1.9 2.9 -2.7
v 1.9 2.9 -3.2
v 1.9 2.9 -3.3
v 1.9 3 -1.5
v 1.9 3 -1.6
v 1.9 3 -2
v 1.9 3 -2.6
v 1.9 3 -3
v 1.9 3 -3.2
v 1.9 3.1 -1.6
v 1.9 3.1 -2
v 1.9 3.1 -2.6
v 1.9 3.1 -3
v 2 2.7 -1.9
v 2 2.7 -2.1
v 2 2.7 -2.5
v 2 2.7 -2.7
v 2 2.9 -1.9
v 2 2.9 -2.1
v 2 2.9 -2.5
v 2 2.9 -2.7
v 1.5 2.7 -1.1
v 1.5 2.8 -1.1
v 1.7 2.7 -1.1
v 1.7 2.8 -1.1
v 1.5 2.6 -1.2
v 1.5 2.7 -1.2
v 1.5 2.8 -1.2
v 1.5 2.9 -1.2
v 1.7 2.6 -1.2
v 1.7 2.7 -1.2
v 1.7 2.8 -1.2
v 1.7 2.9 -1.2
v 1.4 2.6 -1.3
v 1.4 2.9 -1.3
v 1.5 2.6 -1.3
v 1.5 2.9 -1.3
v 1.7 2.6 -1.3
v 1.7 2.9 -1.3
v 1.8 2.6 -1.3
v 1.8 2.9 -1.3
v 1.4 2.5 -1.4
v 1.4 2.6 -1.4
v 1.4 2.9 -1.4
v 1.4 3 -1.4
v 1.8 2.5 -1.4
v 1.8 2.6 -1.4
v 1.8 2.9 -1.4
v 1.8 3 -1.4
v 1.3 2.5 -1.5
v 1.3 3 -1.5
v 1.4 2.4 -1.5
v 1.4 2.5 -1.5
v 1.4 3 -1.5
v 1.4 3.1 -1.5
v 1.8 2.4 -1.5
v 1.8 2.5 -1.5
v 1.8 3 -1.5
v 1.8 3.1 -1.5
v 1.9 2.5 -1.5
v 1.9 3 -1.5
v 1.3 2.4 -1.6
v 1.3 2.5 -1.6
v 1.3 3 -1.6
v 1.3 3.1 -1.6
v 1.4 2.4 -1.6
v 1.4 2.5 -1.6
v 1.4 3 -1.6
v 1.4 3.1 -1.6
v 1.8 2.4 -1.6
v 1.8 2.5 -1.6
v 1.8 3 -1.6
v 1.8 3.1 -1.6
v 1.9 2.4 -1.6
v 1.9 2.5 -1.6
v 1.9 3 -1.6
v 1.9 3.1 -1.6
v 1.5 2.1 -1.9
v 1.5 2.3 -1.9
v 1.6 2.2 -1.9
v 1.6 2.3 -1.9
v 1.6 2.4 -1.9
v 1.7 2.1 -1.9
v 1.7 2.2 -1.9
v 1.7 2.3 -1.9
v 1.7 2.4 -1.9
v 1.9 2.7 -1.9
v 1.9 2.9 -1.9
v 2 2.7 -1.9
v 2 2.9 -1.9
v 1.5 2.1 -2.4
v 1.5 2.3 -2.4
v 1.6 2.2 -2.4
v 1.6 2.3 -2.4
v 1.6 2.4 -2.4
v 1.7 2.1 -2.4
v 1.7 2.2 -2.4
v 1.7 2.3 -2.4
v 1.7 2.4 -2.4
v 1.9 2.7 -2.5
v 1.9 2.9 -2.5
v 2 2.7 -2.5
v 2 2.9 -2.5
v 1.3 2.4 -2.6
v 1.3 2.5 -2.6
v 1.3 3 -2.6
v 1.3 3.1 -2.6
v 1.4 2.4 -2.6
v 1.4 2.5 -2.6
v 1.4 3 -2.6
v 1.4 3.1 -2.6
v 1.8 2.4 -2.6
v 1.8 2.5 -2.6
v 1.8 3 -2.6
v 1.8 3.1 -2.6
v 1.9 2.4 -2.6
v 1.9 2.5 -2.6
v 1.9 3 -2.6
v 1.9 3.1 -2.6
v 1.3 2.4 -2
v 1.3 2.5 -2
v 1.3 3 -2
v 1.3 3.1 -2
v 1.4 2.4 -2
v 1.4 2.5 -2
v 1.4 3 -2
v 1.4 3.1 -2
v 1.8 2.4 -2
v 1.8 2.5 -2
v 1.8 3 -2
v 1.8 3.1 -2
v 1.9 2.4 -2
v 1.9 2.5 -2
v 1.9 3 -2
v 1.9 3.1 -2
v 1.9 2.7 -2.1
v 1.9 2.9 -2.1
v 2 2.7 -2.1
v 2 2.9 -2.1
v 1.5 2.1 -2.2
v 1.5 2.3 -2.2
v 1.6 2.2 -2.2
v 1.6 2.3 -2.2
v 1.6 2.4 -2.2
v 1.7 2.1 -2.2
v 1.7 2.2 -2.2
v 1.7 2.3 -2.2
v 1.7 2.4 -2.2
v 1.5 2.1 -2.7
v 1.5 2.3 -2.7
v 1.6 2.2 -2.7
v 1.6 2.3 -2.7
v 1.6 2.4 -2.7
v 1.7 2.1 -2.7
v 1.7 2.2 -2.7
v 1.7 2.3 -2.7
v 1.7 2.4 -2.7
v 1.9 2.7 -2.7
v 1.9 2.9 -2.7
v 2 2.7 -2.7
v 2 2.9 -2.7
v 1.3 2.4 -3
v 1.3 2.5 -3
v 1.3 3 -3
v 1.3 3.1 -3
v 1.4 2.4 -3
v 1.4 2.5 -3
v 1.4 3 -3
v 1.4 3.1 -3
v 1.5 2.4 -3
v 1.5 2.5 -3
v 1.5 3 -3
v 1.5 3.1 -3
v 1.7 2.4 -3
v 1.7 2.5 -3
v 1.7 3 -3
v 1.7 3.1 -3
v 1.8 2.4 -3
v 1.8 2.5 -3
v 1.8 3 -3
v 1.8 3.1 -3
v 1.9 2.4 -3
v 1.9 2.5 -3
v 1.9 3 -3
v 1.9 3.1 -3
v 1.4 2.4 -3.1
v 1.4 2.5 -3.1
v 1.4 3 -3.1
v 1.4 3.1 -3.1
v 1.5 2.4 -3.1
v 1.5 2.5 -3.1
v 1.5 2.6 -3.1
v 1.5 2.9 -3.1
v 1.5 3 -3.1
v 1.5 3.1 -3.1
v 1.7 2.4 -3.1
v 1.7 2.5 -3.1
v 1.7 2.6 -3.1
v 1.7 2.9 -3.1
v 1.7 3 -3.1
v 1.7 3.1 -3.1
v 1.8 2.4 -3.1
v 1.8 2.5 -3.1
v 1.8 3 -3.1
v 1.8 3.1 -3.1
v 1.3 2.5 -3.2
v 1.3 2.6 -3.2
v 1.3 2.7 -3.2
v 1.3 2.8 -3.2
v 1.3 2.9 -3.2
v 1.3 3 -3.2
v 1.4 2.5 -3.2
v 1.4 2.6 -3.2
v 1.4 2.9 -3.2
v 1.4 3 -3.2
v 1.5 2.5 -3.2
v 1.5 2.6 -3.2
v 1.5 2.7 -3.2
v 1.5 2.8 -3.2
v 1.5 2.9 -3.2
v 1.5 3 -3.2
v 1.7 2.5 -3.2
v 1.7 2.6 -3.2
v 1.7 2.7 -3.2
v 1.7 2.8 -3.2
v 1.7 2.9 -3.2
v 1.7 3 -3.2
v 1.8 2.5 -3.2
v 1.8 2.6 -3.2
v 1.8 2.9 -3.2
v 1.8 3 -3.2
v 1.9 2.5 -3.2
v 1.9 2.6 -3.2
v 1.9 2.7 -3.2
v 1.9 2.8 -3.2
v 1.9 2.9 -3.2
v 1.9 3 -3.2
v 1.3 2.6 -3.3
v 1.3 2.7 -3.3
v 1.3 2.8 -3.3
v 1.3 2.9 -3.3
v 1.4 2.5 -3.3
v 1.4 2.6 -3.3
v 1.4 2.9 -3.3
v 1.4 3 -3.3
v 1.5 2.5 -3.3
v 1.5 2.7 -3.3
v 1.5 2.8 -3.3
v 1.5 3 -3.3
v 1.7 2.5 -3.3
v 1.7 2.7 -3.3
v 1.7 2.8 -3.3
v 1.7 3 -3.3
v 1.8 2.5 -3.3
v 1.8 2.6 -3.3
v 1.8 2.9 -3.3
v 1.8 3 -3.3
v 1.9 2.6 -3.3
v 1.9 2.7 -3.3
v 1.9 2.8 -3.3
v 1.9 2.9 -3.3
v 1.5 2.1 -1.9
v 1.7 2.1 -1.9
v 1.5 2.1 -2.2
v 1.7 2.1 -2.2
v 1.5 2.1 -2.4
v 1.7 2.1 -2.4
v 1.5 2.1 -2.7
v 1.7 2.1 -2.7
v 1.6 2.3 -1.9
v 1.7 2.3 -1.9
v 1.6 2.3 -2.2
v 1.7 2.3 -2.2
v 1.6 2.3 -2.4
v 1.7 2.3 -2.4
v 1.6 2.3 -2.7
v 1.7 2.3 -2.7
v 1.4 2.4 -1.5
v 1.8 2.4 -1.5
v 1.3 2.4 -1.6
v 1.4 2.4 -1.6
v 1.8 2.4 -1.6
v 1.9 2.4 -1.6
v 1.6 2.4 -1.9
v 1.7 2.4 -1.9
v 1.3 2.4 -2
v 1.4 2.4 -2
v 1.6 2.4 -2
v 1.7 2.4 -2
v 1.8 2.4 -2
v 1.9 2.4 -2
v 1.6 2.4 -2.2
v 1.7 2.4 -2.2
v 1.6 2.4 -2.4
v 1.7 2.4 -2.4
v 1.3 2.4 -2.6
v 1.4 2.4 -2.6
v 1.6 2.4 -2.6
v 1.7 2.4 -2.6
v 1.8 2.4 -2.6
v 1.9 2.4 -2.6
v 1.6 2.4 -2.7
v 1.7 2.4 -2.7
v 1.3 2.4 -3
v 1.4 2.4 -3
v 1.5 2.4 -3
v 1.7 2.4 -3
v 1.8 2.4 -3
v 1.9 2.4 -3
v 1.4 2.4 -3.1
v 1.5 2.4 -3.1
v 1.7 2.4 -3.1
v 1.8 2.4 -3.1
v 1.4 2.5 -1.4
v 1.8 2.5 -1.4
v 1.3 2.5 -1.5
v 1.4 2.5 -1.5
v 1.8 2.5 -1.5
v 1.9 2.5 -1.5
v 1.3 2.5 -1.6
v 1.4 2.5 -1.6
v 1.8 2.5 -1.6
v 1.9 2.5 -1.6
v 1.3 2.5 -2
v 1.4 2.5 -2
v 1.8 2.5 -2
v 1.9 2.5 -2
v 1.3 2.5 -2.6
v 1.4 2.5 -2.6
v 1.8 2.5 -2.6
v 1.9 2.5 -2.6
v 1.3 2.5 -3
v 1.4 2.5 -3
v 1.5 2.5 -3
v 1.7 2.5 -3
v 1.8 2.5 -3
v 1.9 2.5 -3
v 1.4 2.5 -3.1
v 1.5 2.5 -3.1
v 1.7 2.5 -3.1
v 1.8 2.5 -3.1
v 1.3 2.5 -3.2
v 1.4 2.5 -3.2
v 1.5 2.5 -3.2
v 1.7 2.5 -3.2
v 1.8 2.5 -3.2
v 1.9 2.5 -3.2
v 1.4 2.5 -3.3
v 1.5 2.5 -3.3
v 1.7 2.5 -3.3
v 1.8 2.5 -3.3
v 1.5 2.6 -1.2
v 1.7 2.6 -1.2
v 1.4 2.6 -1.3
v 1.5 2.6 -1.3
v 1.7 2.6 -1.3
v 1.8 2.6 -1.3
v 1.4 2.6 -1.4
v 1.8 2.6 -1.4
v 1.3 2.6 -3.2
v 1.4 2.6 -3.2
v 1.8 2.6 -3.2
v 1.9 2.6 -3.2
v 1.3 2.6 -3.3
v 1.4 2.6 -3.3
v 1.8 2.6 -3.3
v 1.9 2.6 -3.3
v 1.5 2.7 -1.1
v 1.7 2.7 -1.1
v 1.5 2.7 -1.2
v 1.7 2.7 -1.2
v 1.9 2.7 -1.9
v 2 2.7 -1.9
v 1.9 2.7 -2
v 1.9 2.7 -2.1
v 2 2.7 -2.1
v 1.9 2.7 -2.5
v 2 2.7 -2.5
v 1.9 2.7 -2.6
v 1.9 2.7 -2.7
v 2 2.7 -2.7
v 1.3 2.8 -3.2
v 1.5 2.8 -3.2
v 1.7 2.8 -3.2
v 1.9 2.8 -3.2
v 1.3 2.8 -3.3
v 1.5 2.8 -3.3
v 1.7 2.8 -3.3
v 1.9 2.8 -3.3
v 1.5 2.9 -3.1
v 1.7 2.9 -3.1
v 1.5 2.9 -3.2
v 1.7 2.9 -3.2
v 1.6 2.2 -1.9
v 1.7 2.2 -1.9
v 1.6 2.2 -2.2
v 1.7 2.2 -2.2
v 1.6 2.2 -2.4
v 1.7 2.2 -2.4
v 1.6 2.2 -2.7
v 1.7 2.2 -2.7
v 1.5 2.3 -1.9
v 1.6 2.3 -1.9
v 1.5 2.3 -2.2
v 1.6 2.3 -2.2
v 1.5 2.3 -2.4
v 1.6 2.3 -2.4
v 1.5 2.3 -2.7
v 1.6 2.3 -2.7
v 1.5 2.6 -3.1
v 1.7 2.6 -3.1
v 1.5 2.6 -3.2
v 1.7 2.6 -3.2
v 1.3 2.7 -3.2
v 1.5 2.7 -3.2
v 1.7 2.7 -3.2
v 1.9 2.7 -3.2
v 1.3 2.7 -3.3
v 1.5 2.7 -3.3
v 1.7 2.7 -3.3
v 1.9 2.7 -3.3
v 1.5 2.8 -1.1
v 1.7 2.8 -1.1
v 1.5 2.8 -1.2
v 1.7 2.8 -1.2
v 1.5 2.9 -1.2
v 1.7 2.9 -1.2
v 1.4 2.9 -1.3
v 1.5 2.9 -1.3
v 1.7 2.9 -1.3
v 1.8 2.9 -1.3
v 1.4 2.9 -1.4
v 1.8 2.9 -1.4
v 1.9 2.9 -1.9
v 2 2.9 -1.9
v 1.9 2.9 -2
v 1.9 2.9 -2.1
v 2 2.9 -2.1
v 1.9 2.9 -2.5
v 2 2.9 -2.5
v 1.9 2.9 -2.6
v 1.9 2.9 -2.7
v 2 2.9 -2.7
v 1.3 2.9 -3.2
v 1.4 2.9 -3.2
v 1.8 2.9 -3.2
v 1.9 2.9 -3.2
v 1.3 2.9 -3.3
v 1.4 2.9 -3.3
v 1.8 2.9 -3.3
v 1.9 2.9 -3.3
v 1.4 3 -1.4
v 1.8 3 -1.4
v 1.3 3 -1.5
v 1.4 3 -1.5
v 1.8 3 -1.5
v 1.9 3 -1.5
v 1.3 3 -1.6
v 1.4 3 -1.6
v 1.8 3 -1.6
v 1.9 3 -1.6
v 1.3 3 -2
v 1.4 3 -2
v 1.8 3 -2
v 1.9 3 -2
v 1.3 3 -2.6
v 1.4 3 -2.6
v 1.8 3 -2.6
v 1.9 3 -2.6
v 1.3 3 -3
v 1.4 3 -3
v 1.5 3 -3
v 1.7 3 -3
v 1.8 3 -3
v 1.9 3 -3
v 1.4 3 -3.1
v 1.5 3 -3.1
v 1.7 3 -3.1
v 1.8 3 -3.1
v 1.3 3 -3.2
v 1.4 3 -3.2
v 1.5 3 -3.2
v 1.7 3 -3.2
v 1.8 3 -3.2
v 1.9 3 -3.2
v 1.4 3 -3.3
v 1.5 3 -3.3
v 1.7 3 -3.3
v 1.8 3 -3.3
v 1.4 3.1 -1.5
v 1.8 3.1 -1.5
v 1.3 3.1 -1.6
v 1.4 3.1 -1.6
v 1.8 3.1 -1.6
v 1.9 3.1 -1.6
v 1.3 3.1 -2
v 1.4 3.1 -2
v 1.8 3.1 -2
v 1.9 3.1 -2
v 1.3 3.1 -2.6
v 1.4 3.1 -2.6
v 1.8 3.1 -2.6
v 1.9 3.1 -2.6
v 1.3 3.1 -3
v 1.4 3.1 -3
v 1.5 3.1 -3
v 1.7 3.1 -3
v 1.8 3.1 -3
v 1.9 3.1 -3
v 1.4 3.1 -3.1
v 1.5 3.1 -3.1
v 1.7 3.1 -3.1
v 1.8 3.1 -3.1

# faces
f 6/5/1 2/5/1 1/5/1
f 7/5/1 2/5/1 6/5/1
f 8/5/1 4/5/1 3/5/1
f 9/5/1 4/5/1 8/5/1
f 11/3/1 8/3/1 7/3/1
f 12/3/1 8/3/1 11/3/1
f 13/5/1 10/5/1 9/5/1
f 13/5/1 9/5/1 8/5/1
f 15/2/1 12/2/1 11/2/1
f 16/3/1 8/3/1 12/3/1
f 16/2/1 12/2/1 15/2/1
f 17/5/1 14/5/1 13/5/1
f 17/5/1 13/5/1 8/5/1
f 18/5/1 14/5/1 17/5/1
f 19/2/1 15/2/1 11/2/1
f 19/3/1 11/3/1 7/3/1
f 20/1/1 16/1/1 15/1/1
f 20/2/1 15/2/1 19/2/1
f 21/5/1 17/5/1 8/5/1
f 23/3/1 19/3/1 7/3/1
f 23/1/1 20/1/1 19/1/1
f 24/3/1 8/3/1 16/3/1
f 24/1/1 20/1/1 23/1/1
f 24/1/1 16/1/1 20/1/1
f 25/5/1 21/5/1 8/5/1
f 25/5/1 22/5/1 21/5/1
f 26/5/1 22/5/1 25/5/1
f 27/5/1 7/5/1 6/5/1
f 27/5/1 6/5/1 5/5/1
f 28/5/1 7/5/1 27/5/1
f 29/3/1 23/3/1 7/3/1
f 29/5/1 7/5/1 28/5/1
f 29/3/1 24/3/1 23/3/1
f 30/5/1 25/5/1 8/5/1
f 30/3/1 24/3/1 29/3/1
f 30/3/1 8/3/1 24/3/1
f 31/5/1 25/5/1 30/5/1
f 32/5/1 25/5/1 31/5/1
f 33/5/1 29/5/1 28/5/1
f 34/5/1 29/5/1 33/5/1
f 35/5/1 31/5/1 30/5/1
f 36/5/1 31/5/1 35/5/1
f 44/5/1 38/5/1 37/5/1
f 45/5/1 38/5/1 44/5/1
f 46/3/1 40/3/1 39/3/1
f 47/3/1 40/3/1 46/3/1
f 48/5/1 42/5/1 41/5/1
f 49/5/1 42/5/1 48/5/1
f 53/5/1 44/5/1 43/5/1
f 54/5/1 51/5/1 50/5/1
f 55/5/1 51/5/1 54/5/1
f 56/5/1 53/5/1 52/5/1
f 57/5/1 44/5/1 53/5/1
f 57/5/1 53/5/1 56/5/1
f 60/5/1 44/5/1 57/5/1
f 61/5/1 44/5/1 60/5/1
f 67/5/1 59/5/1 58/5/1
f 68/5/1 59/5/1 67/5/1
f 69/5/1 62/5/1 61/5/1
f 70/5/1 62/5/1 69/5/1
f 71/3/1 64/3/1 63/3/1
f 72/3/1 64/3/1 71/3/1
f 73/5/1 66/5/1 65/5/1
f 74/5/1 66/5/1 73/5/1
f 79/4/1 76/4/1 75/4/1
f 80/4/1 76/4/1 79/4/1
f 81/4/1 78/4/1 77/4/1
f 82/4/1 78/4/1 81/4/1
f 86/3/1 84/3/1 83/3/1
f 87/1/1 86/1/1 85/1/1
f 88/3/1 84/3/1 86/3/1
f 88/1/1 86/1/1 87/1/1
f 89/3/1 84/3/1 88/3/1
f 90/3/1 84/3/1 89/3/1
f 95/4/1 92/4/1 91/4/1
f 96/4/1 92/4/1 95/4/1
f 97/4/1 92/4/1 96/4/1
f 98/4/1 94/4/1 93/4/1
f 99/4/1 94/4/1 98/4/1
f 100/4/1 94/4/1 99/4/1
f 103/5/1 102/5/1 101/5/1
f 104/5/1 102/5/1 103/5/1
f 108/5/1 106/5/1 105/5/1
f 109/5/1 106/5/1 108/5/1
f 109/5/1 108/5/1 107/5/1
f 110/5/1 106/5/1 109/5/1
f 111/5/1 109/5/1 107/5/1
f 113/5/1 111/5/1 107/5/1
f 113/5/1 112/5/1 111/5/1
f 114/5/1 112/5/1 113/5/1
f 117/5/1 112/5/1 114/5/1
f 118/5/1 112/5/1 117/5/1
f 119/5/1 116/5/1 115/5/1
f 120/5/1 116/5/1 119/5/1
f 121/5/2 122/5/2 123/5/2
f 123/5/2 122/5/2 124/5/2
f 125/5/2 126/5/2 128/5/2
f 128/5/2 126/5/2 129/5/2
f 127/5/2 128/5/2 129/5/2
f 129/5/2 126/5/2 130/5/2
f 127/5/2 129/5/2 131/5/2
f 127/5/2 131/5/2 133/5/2
f 131/5/2 132/5/2 133/5/2
f 133/5/2 132/5/2 134/5/2
f 134/5/2 132/5/2 137/5/2
f 137/5/2 132/5/2 138/5/2
f 135/5/2 136/5/2 139/5/2
f 139/5/2 136/5/2 140/5/2
f 141/4/2 142/4/2 145/4/2
f 145/4/2 142/4/2 146/4/2
f 143/4/2 144/4/2 147/4/2
f 147/4/2 144/4/2 148/4/2
f 149/4/2 150/4/2 153/4/2
f 153/4/2 150/4/2 154/4/2
f 151/4/2 152/4/2 155/4/2
f 155/4/2 152/4/2 156/4/2
f 157/4/2 158/4/2 161/4/2
f 161/4/2 158/4/2 162/4/2
f 162/4/2 158/4/2 163/4/2
f 159/4/2 160/4/2 164/4/2
f 164/4/2 160/4/2 165/4/2
f 165/4/2 160/4/2 166/4/2
f 167/3/2 168/3/2 170/3/2
f 169/1/2 170/1/2 171/1/2
f 170/3/2 168/3/2 172/3/2
f 171/1/2 170/1/2 172/1/2
f 172/3/2 168/3/2 173/3/2
f 173/3/2 168/3/2 174/3/2
f 175/5/2 176/5/2 182/5/2
f 182/5/2 176/5/2 183/5/2
f 177/3/2 178/3/2 184/3/2
f 184/3/2 178/3/2 185/3/2
f 179/5/2 180/5/2 186/5/2
f 186/5/2 180/5/2 187/5/2
f 181/5/2 182/5/2 191/5/2
f 188/5/2 189/5/2 192/5/2
f 192/5/2 189/5/2 193/5/2
f 190/5/2 191/5/2 194/5/2
f 191/5/2 182/5/2 195/5/2
f 194/5/2 191/5/2 195/5/2
f 195/5/2 182/5/2 198/5/2
f 198/5/2 182/5/2 199/5/2
f 196/5/2 197/5/2 205/5/2
f 205/5/2 197/5/2 206/5/2
f 199/5/2 200/5/2 207/5/2
f 207/5/2 200/5/2 208/5/2
f 201/3/2 202/3/2 209/3/2
f 209/3/2 202/3/2 210/3/2
f 203/5/2 204/5/2 211/5/2
f 211/5/2 204/5/2 212/5/2
f 213/5/2 214/5/2 218/5/2
f 218/5/2 214/5/2 219/5/2
f 215/5/2 216/5/2 220/5/2
f 220/5/2 216/5/2 221/5/2
f 220/5/2 221/5/2 223/5/2
f 221/5/2 222/5/2 223/5/2
f 218/5/2 219/5/2 225/5/2
f 217/5/2 218/5/2 225/5/2
f 219/3/2 220/3/2 226/3/2
f 225/5/2 219/5/2 226/5/2
f 226/3/2 220/3/2 227/3/2
f 227/3/2 220/3/2 228/3/2
f 223/5/2 224/5/2 229/5/2
f 228/3/2 220/3/2 229/3/2
f 220/5/2 223/5/2 229/5/2
f 229/5/2 224/5/2 230/5/2
f 230/5/2 224/5/2 231/5/2
f 231/5/2 224/5/2 232/5/2
f 230/5/2 231/5/2 233/5/2
f 217/5/2 225/5/2 235/5/2
f 227/3/2 228/3/2 237/3/2
f 237/3/2 228/3/2 238/3/2
f 233/5/2 234/5/2 240/5/2
f 230/5/2 233/5/2 240/5/2
f 240/5/2 234/5/2 241/5/2
f 241/5/2 234/5/2 242/5/2
f 235/5/2 236/5/2 243/5/2
f 217/5/2 235/5/2 243/5/2
f 243/5/2 236/5/2 244/5/2
f 238/3/2 239/3/2 245/3/2
f 244/5/2 236/5/2 245/5/2
f 237/3/2 238/3/2 245/3/2
f 236/3/2 237/3/2 245/3/2
f 240/5/2 241/5/2 246/5/2
f 245/3/2 239/3/2 246/3/2
f 239/5/2 240/5/2 246/5/2
f 246/5/2 241/5/2 247/5/2
f 247/5/2 241/5/2 248/5/2
f 244/5/2 245/5/2 249/5/2
f 249/5/2 245/5/2 250/5/2
f 246/5/2 247/5/2 251/5/2
f 251/5/2 247/5/2 252/5/2
f 253/6/2 254/6/2 257/6/2
f 257/6/2 254/6/2 258/6/2
f 255/6/2 256/6/2 259/6/2
f 259/6/2 256/6/2 260/6/2
f 263/1/3 262/1/3 261/1/3
f 264/1/3 262/1/3 263/1/3
f 269/3/3 266/3/3 265/3/3
f 270/3/3 266/3/3 269/3/3
f 271/3/3 268/3/3 267/3/3
f 272/3/3 268/3/3 271/3/3
f 275/5/3 274/5/3 273/5/3
f 276/5/3 274/5/3 275/5/3
f 279/5/3 278/5/3 277/5/3
f 280/5/3 278/5/3 279/5/3
f 285/5/3 282/5/3 281/5/3
f 286/5/3 282/5/3 285/5/3
f 287/5/3 284/5/3 283/5/3
f 288/5/3 284/5/3 287/5/3
f 292/5/3 290/5/3 289/5/3
f 293/5/3 290/5/3 292/5/3
f 295/5/3 292/5/3 291/5/3
f 296/5/3 292/5/3 295/5/3
f 297/5/3 294/5/3 293/5/3
f 298/5/3 294/5/3 297/5/3
f 299/5/3 297/5/3 296/5/3
f 300/5/3 297/5/3 299/5/3
f 305/5/3 302/5/3 301/5/3
f 306/5/3 302/5/3 305/5/3
f 307/5/3 304/5/3 303/5/3
f 308/5/3 304/5/3 307/5/3
f 313/5/3 310/5/3 309/5/3
f 314/5/3 310/5/3 313/5/3
f 315/5/3 312/5/3 311/5/3
f 316/5/3 312/5/3 315/5/3
f 319/4/3 318/4/3 317/4/3
f 320/4/3 318/4/3 319/4/3
f 322/4/3 319/4/3 317/4/3
f 323/4/3 319/4/3 322/4/3
f 324/4/3 321/4/3 320/4/3
f 325/4/3 321/4/3 324/4/3
f 328/6/3 327/6/3 326/6/3
f 329/6/3 327/6/3 328/6/3
f 332/4/3 331/4/3 330/4/3
f 333/4/3 331/4/3 332/4/3
f 335/4/3 332/4/3 330/4/3
f 336/4/3 332/4/3 335/4/3
f 337/4/3 334/4/3 333/4/3
f 338/4/3 334/4/3 337/4/3
f 341/6/3 340/6/3 339/6/3
f 342/6/3 340/6/3 341/6/3
f 347/5/3 344/5/3 343/5/3
f 348/5/3 344/5/3 347/5/3
f 349/5/3 346/5/3 345/5/3
f 350/5/3 346/5/3 349/5/3
f 355/5/3 352/5/3 351/5/3
f 356/5/3 352/5/3 355/5/3
f 357/5/3 354/5/3 353/5/3
f 358/5/3 354/5/3 357/5/3
f 359/5/4 360/5/4 363/5/4
f 363/5/4 360/5/4 364/5/4
f 361/5/4 362/5/4 365/5/4
f 365/5/4 362/5/4 366/5/4
f 367/5/4 368/5/4 371/5/4
f 371/5/4 368/5/4 372/5/4
f 369/5/4 370/5/4 373/5/4
f 373/5/4 370/5/4 374/5/4
f 375/6/4 376/6/4 377/6/4
f 377/6/4 376/6/4 378/6/4
f 379/4/4 380/4/4 381/4/4
f 381/4/4 380/4/4 382/4/4
f 379/4/4 381/4/4 384/4/4
f 384/4/4 381/4/4 385/4/4
f 382/4/4 383/4/4 386/4/4
f 386/4/4 383/4/4 387/4/4
f 388/4/4 389/4/4 390/4/4
f 390/4/4 389/4/4 391/4/4
f 388/4/4 390/4/4 393/4/4
f 393/4/4 390/4/4 394/4/4
f 391/4/4 392/4/4 395/4/4
f 395/4/4 392/4/4 396/4/4
f 397/6/4 398/6/4 399/6/4
f 399/6/4 398/6/4 400/6/4
f 401/5/4 402/5/4 405/5/4
f 405/5/4 402/5/4 406/5/4
f 403/5/4 404/5/4 407/5/4
f 407/5/4 404/5/4 408/5/4
f 409/5/4 410/5/4 413/5/4
f 413/5/4 410/5/4 414/5/4
f 411/5/4 412/5/4 415/5/4
f 415/5/4 412/5/4 416/5/4
f 417/5/4 418/5/4 421/5/4
f 421/5/4 418/5/4 422/5/4
f 419/5/4 420/5/4 423/5/4
f 423/5/4 420/5/4 424/5/4
f 425/5/4 426/5/4 429/5/4
f 429/5/4 426/5/4 430/5/4
f 427/5/4 428/5/4 433/5/4
f 433/5/4 428/5/4 434/5/4
f 431/5/4 432/5/4 437/5/4
f 437/5/4 432/5/4 438/5/4
f 435/5/4 436/5/4 441/5/4
f 441/5/4 436/5/4 442/5/4
f 439/5/4 440/5/4 443/5/4
f 443/5/4 440/5/4 444/5/4
f 445/5/4 446/5/4 451/5/4
f 451/5/4 446/5/4 452/5/4
f 449/5/4 450/5/4 453/5/4
f 453/5/4 450/5/4 454/5/4
f 447/5/4 448/5/4 457/5/4
f 457/5/4 448/5/4 458/5/4
f 455/5/4 456/5/4 461/5/4
f 461/5/4 456/5/4 462/5/4
f 459/5/4 460/5/4 465/5/4
f 465/5/4 460/5/4 466/5/4
f 467/5/4 468/5/4 471/5/4
f 471/5/4 468/5/4 472/5/4
f 463/5/4 464/5/4 473/5/4
f 473/5/4 464/5/4 474/5/4
f 469/5/4 470/5/4 475/5/4
f 475/5/4 470/5/4 476/5/4
f 477/5/4 478/5/4 482/5/4
f 479/5/4 480/5/4 483/5/4
f 481/5/4 482/5/4 485/5/4
f 482/5/4 478/5/4 486/5/4
f 485/5/4 482/5/4 486/5/4
f 483/5/4 484/5/4 487/5/4
f 479/5/4 483/5/4 487/5/4
f 487/5/4 484/5/4 488/5/4
f 489/5/4 490/5/4 493/5/4
f 493/5/4 490/5/4 494/5/4
f 491/5/4 492/5/4 495/5/4
f 495/5/4 492/5/4 496/5/4
f 494/5/4 490/5/4 497/5/4
f 497/5/4 490/5/4 498/5/4
f 491/5/4 495/5/4 499/5/4
f 499/5/4 495/5/4 500/5/4
f 503/4/5 502/4/5 501/4/5
f 504/4/5 502/4/5 503/4/5
f 507/4/5 506/4/5 505/4/5
f 508/4/5 506/4/5 507/4/5
f 511/4/5 510/4/5 509/4/5
f 512/4/5 510/4/5 511/4/5
f 515/4/5 514/4/5 513/4/5
f 516/4/5 514/4/5 515/4/5
f 520/5/5 518/5/5 517/5/5
f 521/5/5 518/5/5 520/5/5
f 523/5/5 520/5/5 519/5/5
f 523/5/5 522/5/5 521/5/5
f 523/5/5 521/5/5 520/5/5
f 524/5/5 522/5/5 523/5/5
f 525/5/5 523/5/5 519/5/5
f 526/5/5 523/5/5 525/5/5
f 527/5/5 523/5/5 526/5/5
f 528/5/5 522/5/5 524/5/5
f 529/5/5 522/5/5 528/5/5
f 530/5/5 522/5/5 529/5/5
f 531/3/5 527/3/5 526/3/5
f 532/3/5 529/3/5 528/3/5
f 533/3/5 531/3/5 526/3/5
f 533/3/5 532/3/5 531/3/5
f 534/3/5 529/3/5 532/3/5
f 534/3/5 532/3/5 533/3/5
f 536/3/5 533/3/5 526/3/5
f 537/3/5 533/3/5 536/3/5
f 538/3/5 529/3/5 534/3/5
f 539/3/5 529/3/5 538/3/5
f 541/5/5 537/5/5 536/5/5
f 541/5/5 536/5/5 535/5/5
f 542/5/5 540/5/5 539/5/5
f 542/5/5 539/5/5 538/5/5
f 543/5/5 541/5/5 535/5/5
f 543/5/5 542/5/5 541/5/5
f 544/5/5 542/5/5 543/5/5
f 545/5/5 542/5/5 544/5/5
f 546/5/5 540/5/5 542/5/5
f 546/5/5 542/5/5 545/5/5
f 547/5/5 540/5/5 546/5/5
f 548/5/5 540/5/5 547/5/5
f 549/5/5 545/5/5 544/5/5
f 550/5/5 545/5/5 549/5/5
f 551/5/5 547/5/5 546/5/5
f 552/5/5 547/5/5 551/5/5
f 556/5/5 554/5/5 553/5/5
f 557/5/5 554/5/5 556/5/5
f 559/5/5 556/5/5 555/5/5
f 560/5/5 556/5/5 559/5/5
f 561/5/5 558/5/5 557/5/5
f 562/5/5 558/5/5 561/5/5
f 567/3/5 564/3/5 563/3/5
f 568/3/5 564/3/5 567/3/5
f 569/3/5 566/3/5 565/3/5
f 570/3/5 566/3/5 569/3/5
f 577/5/5 572/5/5 571/5/5
f 578/5/5 574/5/5 573/5/5
f 579/5/5 574/5/5 578/5/5
f 580/5/5 576/5/5 575/5/5
f 581/5/5 579/5/5 578/5/5
f 581/5/5 580/5/5 579/5/5
f 581/5/5 577/5/5 571/5/5
f 581/5/5 578/5/5 577/5/5
f 582/5/5 580/5/5 581/5/5
f 583/5/5 580/5/5 582/5/5
f 584/5/5 580/5/5 583/5/5
f 585/5/5 576/5/5 580/5/5
f 585/5/5 580/5/5 584/5/5
f 586/5/5 576/5/5 585/5/5
f 587/5/5 583/5/5 582/5/5
f 588/5/5 583/5/5 587/5/5
f 589/5/5 585/5/5 584/5/5
f 590/5/5 585/5/5 589/5/5
f 594/3/5 592/3/5 591/3/5
f 595/3/5 592/3/5 594/3/5
f 597/5/5 594/5/5 593/5/5
f 597/5/5 596/5/5 595/5/5
f 597/5/5 595/5/5 594/5/5
f 598/5/5 596/5/5 597/5/5
f 603/5/5 600/5/5 599/5/5
f 604/5/5 600/5/5 603/5/5
f 605/5/5 602/5/5 601/5/5
f 606/5/5 602/5/5 605/5/5
f 609/1/5 608/1/5 607/1/5
f 610/1/5 608/1/5 609/1/5
f 613/6/5 612/6/5 611/6/5
f 614/6/5 612/6/5 613/6/5
f 615/6/5 612/6/5 614/6/5
f 618/6/5 617/6/5 616/6/5
f 619/6/5 617/6/5 618/6/5
f 620/6/5 617/6/5 619/6/5
f 625/5/5 622/5/5 621/5/5
f 626/5/5 622/5/5 625/5/5
f 627/5/5 624/5/5 623/5/5
f 628/5/5 624/5/5 627/5/5
f 631/5/5 630/5/5 629/5/5
f 632/5/5 630/5/5 631/5/5
f 633/4/6 634/4/6 635/4/6
f 635/4/6 634/4/6 636/4/6
f 637/4/6 638/4/6 639/4/6
f 639/4/6 638/4/6 640/4/6
f 641/4/6 642/4/6 643/4/6
f 643/4/6 642/4/6 644/4/6
f 645/4/6 646/4/6 647/4/6
f 647/4/6 646/4/6 648/4/6
f 649/5/6 650/5/6 651/5/6
f 651/5/6 650/5/6 652/5/6
f 653/5/6 654/5/6 657/5/6
f 657/5/6 654/5/6 658/5/6
f 655/5/6 656/5/6 659/5/6
f 659/5/6 656/5/6 660/5/6
f 661/1/6 662/1/6 663/1/6
f 663/1/6 662/1/6 664/1/6
f 665/3/6 666/3/6 668/3/6
f 668/3/6 666/3/6 669/3/6
f 667/5/6 668/5/6 671/5/6
f 669/5/6 670/5/6 671/5/6
f 668/5/6 669/5/6 671/5/6
f 671/5/6 670/5/6 672/5/6
f 673/6/6 674/6/6 675/6/6
f 675/6/6 674/6/6 676/6/6
f 676/6/6 674/6/6 677/6/6
f 678/6/6 679/6/6 680/6/6
f 680/6/6 679/6/6 681/6/6
f 681/6/6 679/6/6 682/6/6
f 683/5/6 684/5/6 687/5/6
f 687/5/6 684/5/6 688/5/6
f 685/5/6 686/5/6 689/5/6
f 689/5/6 686/5/6 690/5/6
f 691/5/6 692/5/6 694/5/6
f 694/5/6 692/5/6 695/5/6
f 693/5/6 694/5/6 697/5/6
f 697/5/6 694/5/6 698/5/6
f 695/5/6 696/5/6 699/5/6
f 699/5/6 696/5/6 700/5/6
f 701/3/6 702/3/6 705/3/6
f 705/3/6 702/3/6 706/3/6
f 703/3/6 704/3/6 707/3/6
f 707/3/6 704/3/6 708/3/6
f 709/5/6 710/5/6 715/5/6
f 711/5/6 712/5/6 716/5/6
f 716/5/6 712/5/6 717/5/6
f 713/5/6 714/5/6 718/5/6
f 716/5/6 717/5/6 719/5/6
f 717/5/6 718/5/6 719/5/6
f 709/5/6 715/5/6 719/5/6
f 715/5/6 716/5/6 719/5/6
f 719/5/6 718/5/6 720/5/6
f 720/5/6 718/5/6 721/5/6
f 721/5/6 718/5/6 722/5/6
f 718/5/6 714/5/6 723/5/6
f 722/5/6 718/5/6 723/5/6
f 723/5/6 714/5/6 724/5/6
f 720/5/6 721/5/6 725/5/6
f 725/5/6 721/5/6 726/5/6
f 722/5/6 723/5/6 727/5/6
f 727/5/6 723/5/6 728/5/6
f 729/5/6 730/5/6 732/5/6
f 732/5/6 730/5/6 733/5/6
f 731/5/6 732/5/6 735/5/6
f 733/5/6 734/5/6 735/5/6
f 732/5/6 733/5/6 735/5/6
f 735/5/6 734/5/6 736/5/6
f 736/5/6 734/5/6 737/5/6
f 737/5/6 734/5/6 738/5/6
f 736/3/6 737/3/6 740/3/6
f 740/3/6 737/3/6 741/3/6
f 739/5/6 740/5/6 743/5/6
f 741/5/6 742/5/6 743/5/6
f 740/5/6 741/5/6 743/5/6
f 743/5/6 742/5/6 744/5/6
f 744/5/6 742/5/6 745/5/6
f 745/5/6 742/5/6 746/5/6
f 746/5/6 742/5/6 747/5/6
f 747/5/6 742/5/6 748/5/6
f 744/5/6 745/5/6 749/5/6
f 749/5/6 745/5/6 750/5/6
f 746/5/6 747/5/6 751/5/6
f 751/5/6 747/5/6 752/5/6
