# MagicaVoxel @ Ephtracy

# group
o 

# material
mtllib platformS.mtl
usemtl palette

# normals
vn -1 0 0
vn 1 0 0
vn 0 0 1
vn 0 0 -1
vn 0 -1 0
vn 0 1 0

# texcoords
vt 0.0449219 0.5
vt 0.0488281 0.5

# verts
v 0.1 2 -0.4
v 0.1 2 -0.7
v 0.1 2.2 -0.4
v 0.1 2.2 -0.7
v 0.1 2.3 -0.4
v 0.1 2.3 -0.7
v 0.2 2 -0.3
v 0.2 2 -0.4
v 0.2 2 -0.7
v 0.2 2 -0.8
v 0.2 2.2 -0.3
v 0.2 2.2 -0.4
v 0.2 2.2 -0.7
v 0.2 2.2 -0.8
v 0.2 2.3 -0.3
v 0.2 2.3 -0.4
v 0.2 2.3 -0.7
v 0.2 2.3 -0.8
v 0.3 2 -0.2
v 0.3 2 -0.3
v 0.3 2 -0.8
v 0.3 2 -0.9
v 0.3 2.2 -0.2
v 0.3 2.2 -0.3
v 0.3 2.2 -0.8
v 0.3 2.2 -0.9
v 0.3 2.3 -0.2
v 0.3 2.3 -0.3
v 0.3 2.3 -0.8
v 0.3 2.3 -0.9
v 0.6 2 -0.2
v 0.6 2 -0.3
v 0.6 2 -0.8
v 0.6 2 -0.9
v 0.6 2.2 -0.2
v 0.6 2.2 -0.3
v 0.6 2.2 -0.8
v 0.6 2.2 -0.9
v 0.6 2.3 -0.2
v 0.6 2.3 -0.3
v 0.6 2.3 -0.8
v 0.6 2.3 -0.9
v 0.7 2 -0.3
v 0.7 2 -0.4
v 0.7 2 -0.7
v 0.7 2 -0.8
v 0.7 2.2 -0.3
v 0.7 2.2 -0.4
v 0.7 2.2 -0.7
v 0.7 2.2 -0.8
v 0.7 2.3 -0.3
v 0.7 2.3 -0.4
v 0.7 2.3 -0.7
v 0.7 2.3 -0.8
v 0.8 2 -0.4
v 0.8 2 -0.7
v 0.8 2.2 -0.4
v 0.8 2.2 -0.7
v 0.8 2.3 -0.4
v 0.8 2.3 -0.7
v 0.3 2 -0.2
v 0.3 2.2 -0.2
v 0.3 2.3 -0.2
v 0.6 2 -0.2
v 0.6 2.2 -0.2
v 0.6 2.3 -0.2
v 0.2 2 -0.3
v 0.2 2.2 -0.3
v 0.2 2.3 -0.3
v 0.3 2 -0.3
v 0.3 2.2 -0.3
v 0.3 2.3 -0.3
v 0.6 2 -0.3
v 0.6 2.2 -0.3
v 0.6 2.3 -0.3
v 0.7 2 -0.3
v 0.7 2.2 -0.3
v 0.7 2.3 -0.3
v 0.1 2 -0.4
v 0.1 2.2 -0.4
v 0.1 2.3 -0.4
v 0.2 2 -0.4
v 0.2 2.2 -0.4
v 0.2 2.3 -0.4
v 0.7 2 -0.4
v 0.7 2.2 -0.4
v 0.7 2.3 -0.4
v 0.8 2 -0.4
v 0.8 2.2 -0.4
v 0.8 2.3 -0.4
v 0.1 2 -0.7
v 0.1 2.2 -0.7
v 0.1 2.3 -0.7
v 0.2 2 -0.7
v 0.2 2.2 -0.7
v 0.2 2.3 -0.7
v 0.7 2 -0.7
v 0.7 2.2 -0.7
v 0.7 2.3 -0.7
v 0.8 2 -0.7
v 0.8 2.2 -0.7
v 0.8 2.3 -0.7
v 0.2 2 -0.8
v 0.2 2.2 -0.8
v 0.2 2.3 -0.8
v 0.3 2 -0.8
v 0.3 2.2 -0.8
v 0.3 2.3 -0.8
v 0.6 2 -0.8
v 0.6 2.2 -0.8
v 0.6 2.3 -0.8
v 0.7 2 -0.8
v 0.7 2.2 -0.8
v 0.7 2.3 -0.8
v 0.3 2 -0.9
v 0.3 2.2 -0.9
v 0.3 2.3 -0.9
v 0.6 2 -0.9
v 0.6 2.2 -0.9
v 0.6 2.3 -0.9
v 0.3 2 -0.2
v 0.6 2 -0.2
v 0.2 2 -0.3
v 0.3 2 -0.3
v 0.6 2 -0.3
v 0.7 2 -0.3
v 0.1 2 -0.4
v 0.2 2 -0.4
v 0.7 2 -0.4
v 0.8 2 -0.4
v 0.1 2 -0.7
v 0.2 2 -0.7
v 0.7 2 -0.7
v 0.8 2 -0.7
v 0.2 2 -0.8
v 0.3 2 -0.8
v 0.6 2 -0.8
v 0.7 2 -0.8
v 0.3 2 -0.9
v 0.6 2 -0.9
v 0.3 2.3 -0.2
v 0.6 2.3 -0.2
v 0.2 2.3 -0.3
v 0.3 2.3 -0.3
v 0.6 2.3 -0.3
v 0.7 2.3 -0.3
v 0.1 2.3 -0.4
v 0.2 2.3 -0.4
v 0.7 2.3 -0.4
v 0.8 2.3 -0.4
v 0.1 2.3 -0.7
v 0.2 2.3 -0.7
v 0.7 2.3 -0.7
v 0.8 2.3 -0.7
v 0.2 2.3 -0.8
v 0.3 2.3 -0.8
v 0.6 2.3 -0.8
v 0.7 2.3 -0.8
v 0.3 2.3 -0.9
v 0.6 2.3 -0.9

# faces
f 3/2/1 2/2/1 1/2/1
f 4/2/1 2/2/1 3/2/1
f 5/1/1 4/1/1 3/1/1
f 6/1/1 4/1/1 5/1/1
f 11/2/1 8/2/1 7/2/1
f 12/2/1 8/2/1 11/2/1
f 13/2/1 10/2/1 9/2/1
f 14/2/1 10/2/1 13/2/1
f 15/1/1 12/1/1 11/1/1
f 16/1/1 12/1/1 15/1/1
f 17/1/1 14/1/1 13/1/1
f 18/1/1 14/1/1 17/1/1
f 23/2/1 20/2/1 19/2/1
f 24/2/1 20/2/1 23/2/1
f 25/2/1 22/2/1 21/2/1
f 26/2/1 22/2/1 25/2/1
f 27/1/1 24/1/1 23/1/1
f 28/1/1 24/1/1 27/1/1
f 29/1/1 26/1/1 25/1/1
f 30/1/1 26/1/1 29/1/1
f 31/2/2 32/2/2 35/2/2
f 35/2/2 32/2/2 36/2/2
f 33/2/2 34/2/2 37/2/2
f 37/2/2 34/2/2 38/2/2
f 35/1/2 36/1/2 39/1/2
f 39/1/2 36/1/2 40/1/2
f 37/1/2 38/1/2 41/1/2
f 41/1/2 38/1/2 42/1/2
f 43/2/2 44/2/2 47/2/2
f 47/2/2 44/2/2 48/2/2
f 45/2/2 46/2/2 49/2/2
f 49/2/2 46/2/2 50/2/2
f 47/1/2 48/1/2 51/1/2
f 51/1/2 48/1/2 52/1/2
f 49/1/2 50/1/2 53/1/2
f 53/1/2 50/1/2 54/1/2
f 55/2/2 56/2/2 57/2/2
f 57/2/2 56/2/2 58/2/2
f 57/1/2 58/1/2 59/1/2
f 59/1/2 58/1/2 60/1/2
f 64/2/3 62/2/3 61/2/3
f 65/1/3 63/1/3 62/1/3
f 65/2/3 62/2/3 64/2/3
f 66/1/3 63/1/3 65/1/3
f 70/2/3 68/2/3 67/2/3
f 71/1/3 69/1/3 68/1/3
f 71/2/3 68/2/3 70/2/3
f 72/1/3 69/1/3 71/1/3
f 76/2/3 74/2/3 73/2/3
f 77/1/3 75/1/3 74/1/3
f 77/2/3 74/2/3 76/2/3
f 78/1/3 75/1/3 77/1/3
f 82/2/3 80/2/3 79/2/3
f 83/1/3 81/1/3 80/1/3
f 83/2/3 80/2/3 82/2/3
f 84/1/3 81/1/3 83/1/3
f 88/2/3 86/2/3 85/2/3
f 89/1/3 87/1/3 86/1/3
f 89/2/3 86/2/3 88/2/3
f 90/1/3 87/1/3 89/1/3
f 91/2/4 92/2/4 94/2/4
f 92/1/4 93/1/4 95/1/4
f 94/2/4 92/2/4 95/2/4
f 95/1/4 93/1/4 96/1/4
f 97/2/4 98/2/4 100/2/4
f 98/1/4 99/1/4 101/1/4
f 100/2/4 98/2/4 101/2/4
f 101/1/4 99/1/4 102/1/4
f 103/2/4 104/2/4 106/2/4
f 104/1/4 105/1/4 107/1/4
f 106/2/4 104/2/4 107/2/4
f 107/1/4 105/1/4 108/1/4
f 109/2/4 110/2/4 112/2/4
f 110/1/4 111/1/4 113/1/4
f 112/2/4 110/2/4 113/2/4
f 113/1/4 111/1/4 114/1/4
f 115/2/4 116/2/4 118/2/4
f 116/1/4 117/1/4 119/1/4
f 118/2/4 116/2/4 119/2/4
f 119/1/4 117/1/4 120/1/4
f 124/2/5 122/2/5 121/2/5
f 125/2/5 122/2/5 124/2/5
f 128/2/5 124/2/5 123/2/5
f 128/2/5 126/2/5 125/2/5
f 128/2/5 125/2/5 124/2/5
f 129/2/5 126/2/5 128/2/5
f 131/2/5 128/2/5 127/2/5
f 131/2/5 130/2/5 129/2/5
f 131/2/5 129/2/5 128/2/5
f 132/2/5 130/2/5 131/2/5
f 133/2/5 130/2/5 132/2/5
f 134/2/5 130/2/5 133/2/5
f 135/2/5 133/2/5 132/2/5
f 136/2/5 133/2/5 135/2/5
f 137/2/5 133/2/5 136/2/5
f 138/2/5 133/2/5 137/2/5
f 139/2/5 137/2/5 136/2/5
f 140/2/5 137/2/5 139/2/5
f 141/1/6 142/1/6 144/1/6
f 144/1/6 142/1/6 145/1/6
f 143/1/6 144/1/6 148/1/6
f 145/1/6 146/1/6 148/1/6
f 144/1/6 145/1/6 148/1/6
f 148/1/6 146/1/6 149/1/6
f 147/1/6 148/1/6 151/1/6
f 149/1/6 150/1/6 151/1/6
f 148/1/6 149/1/6 151/1/6
f 151/1/6 150/1/6 152/1/6
f 152/1/6 150/1/6 153/1/6
f 153/1/6 150/1/6 154/1/6
f 152/1/6 153/1/6 155/1/6
f 155/1/6 153/1/6 156/1/6
f 156/1/6 153/1/6 157/1/6
f 157/1/6 153/1/6 158/1/6
f 156/1/6 157/1/6 159/1/6
f 159/1/6 157/1/6 160/1/6
