# MagicaVoxel @ Ephtracy

# group
o 

# material
mtllib platformS3.mtl
usemtl palette

# normals
vn -1 0 0
vn 1 0 0
vn 0 0 1
vn 0 0 -1
vn 0 -1 0
vn 0 1 0

# texcoords
vt 0.677734 0.5
vt 0.716797 0.5

# verts
v 0 2 -0.3
v 0 2 -0.8
v 0 2.3 -0.3
v 0 2.3 -0.8
v 0 2.4 -0.3
v 0 2.4 -0.8
v 0.1 2 -0.2
v 0.1 2 -0.3
v 0.1 2 -0.8
v 0.1 2 -0.9
v 0.1 2.3 -0.2
v 0.1 2.3 -0.3
v 0.1 2.3 -0.8
v 0.1 2.3 -0.9
v 0.1 2.4 -0.2
v 0.1 2.4 -0.3
v 0.1 2.4 -0.8
v 0.1 2.4 -0.9
v 0.2 2 -0.1
v 0.2 2 -0.2
v 0.2 2 -0.9
v 0.2 2 -1
v 0.2 2.3 -0.1
v 0.2 2.3 -0.2
v 0.2 2.3 -0.9
v 0.2 2.3 -1
v 0.2 2.4 -0.1
v 0.2 2.4 -0.2
v 0.2 2.4 -0.9
v 0.2 2.4 -1
v 0.7 2 -0.1
v 0.7 2 -0.2
v 0.7 2 -0.9
v 0.7 2 -1
v 0.7 2.3 -0.1
v 0.7 2.3 -0.2
v 0.7 2.3 -0.9
v 0.7 2.3 -1
v 0.7 2.4 -0.1
v 0.7 2.4 -0.2
v 0.7 2.4 -0.9
v 0.7 2.4 -1
v 0.8 2 -0.2
v 0.8 2 -0.3
v 0.8 2 -0.8
v 0.8 2 -0.9
v 0.8 2.3 -0.2
v 0.8 2.3 -0.3
v 0.8 2.3 -0.8
v 0.8 2.3 -0.9
v 0.8 2.4 -0.2
v 0.8 2.4 -0.3
v 0.8 2.4 -0.8
v 0.8 2.4 -0.9
v 0.9 2 -0.3
v 0.9 2 -0.8
v 0.9 2.3 -0.3
v 0.9 2.3 -0.8
v 0.9 2.4 -0.3
v 0.9 2.4 -0.8
v 0.2 2 -0.1
v 0.2 2.3 -0.1
v 0.2 2.4 -0.1
v 0.7 2 -0.1
v 0.7 2.3 -0.1
v 0.7 2.4 -0.1
v 0.1 2 -0.2
v 0.1 2.3 -0.2
v 0.1 2.4 -0.2
v 0.2 2 -0.2
v 0.2 2.3 -0.2
v 0.2 2.4 -0.2
v 0.7 2 -0.2
v 0.7 2.3 -0.2
v 0.7 2.4 -0.2
v 0.8 2 -0.2
v 0.8 2.3 -0.2
v 0.8 2.4 -0.2
v 0 2 -0.3
v 0 2.3 -0.3
v 0 2.4 -0.3
v 0.1 2 -0.3
v 0.1 2.3 -0.3
v 0.1 2.4 -0.3
v 0.8 2 -0.3
v 0.8 2.3 -0.3
v 0.8 2.4 -0.3
v 0.9 2 -0.3
v 0.9 2.3 -0.3
v 0.9 2.4 -0.3
v 0 2 -0.8
v 0 2.3 -0.8
v 0 2.4 -0.8
v 0.1 2 -0.8
v 0.1 2.3 -0.8
v 0.1 2.4 -0.8
v 0.8 2 -0.8
v 0.8 2.3 -0.8
v 0.8 2.4 -0.8
v 0.9 2 -0.8
v 0.9 2.3 -0.8
v 0.9 2.4 -0.8
v 0.1 2 -0.9
v 0.1 2.3 -0.9
v 0.1 2.4 -0.9
v 0.2 2 -0.9
v 0.2 2.3 -0.9
v 0.2 2.4 -0.9
v 0.7 2 -0.9
v 0.7 2.3 -0.9
v 0.7 2.4 -0.9
v 0.8 2 -0.9
v 0.8 2.3 -0.9
v 0.8 2.4 -0.9
v 0.2 2 -1
v 0.2 2.3 -1
v 0.2 2.4 -1
v 0.7 2 -1
v 0.7 2.3 -1
v 0.7 2.4 -1
v 0.2 2 -0.1
v 0.7 2 -0.1
v 0.1 2 -0.2
v 0.2 2 -0.2
v 0.7 2 -0.2
v 0.8 2 -0.2
v 0 2 -0.3
v 0.1 2 -0.3
v 0.8 2 -0.3
v 0.9 2 -0.3
v 0 2 -0.8
v 0.1 2 -0.8
v 0.8 2 -0.8
v 0.9 2 -0.8
v 0.1 2 -0.9
v 0.2 2 -0.9
v 0.7 2 -0.9
v 0.8 2 -0.9
v 0.2 2 -1
v 0.7 2 -1
v 0.2 2.4 -0.1
v 0.7 2.4 -0.1
v 0.1 2.4 -0.2
v 0.2 2.4 -0.2
v 0.7 2.4 -0.2
v 0.8 2.4 -0.2
v 0 2.4 -0.3
v 0.1 2.4 -0.3
v 0.8 2.4 -0.3
v 0.9 2.4 -0.3
v 0 2.4 -0.8
v 0.1 2.4 -0.8
v 0.8 2.4 -0.8
v 0.9 2.4 -0.8
v 0.1 2.4 -0.9
v 0.2 2.4 -0.9
v 0.7 2.4 -0.9
v 0.8 2.4 -0.9
v 0.2 2.4 -1
v 0.7 2.4 -1

# faces
f 3/1/1 2/1/1 1/1/1
f 4/1/1 2/1/1 3/1/1
f 5/2/1 4/2/1 3/2/1
f 6/2/1 4/2/1 5/2/1
f 11/1/1 8/1/1 7/1/1
f 12/1/1 8/1/1 11/1/1
f 13/1/1 10/1/1 9/1/1
f 14/1/1 10/1/1 13/1/1
f 15/2/1 12/2/1 11/2/1
f 16/2/1 12/2/1 15/2/1
f 17/2/1 14/2/1 13/2/1
f 18/2/1 14/2/1 17/2/1
f 23/1/1 20/1/1 19/1/1
f 24/1/1 20/1/1 23/1/1
f 25/1/1 22/1/1 21/1/1
f 26/1/1 22/1/1 25/1/1
f 27/2/1 24/2/1 23/2/1
f 28/2/1 24/2/1 27/2/1
f 29/2/1 26/2/1 25/2/1
f 30/2/1 26/2/1 29/2/1
f 31/1/2 32/1/2 35/1/2
f 35/1/2 32/1/2 36/1/2
f 33/1/2 34/1/2 37/1/2
f 37/1/2 34/1/2 38/1/2
f 35/2/2 36/2/2 39/2/2
f 39/2/2 36/2/2 40/2/2
f 37/2/2 38/2/2 41/2/2
f 41/2/2 38/2/2 42/2/2
f 43/1/2 44/1/2 47/1/2
f 47/1/2 44/1/2 48/1/2
f 45/1/2 46/1/2 49/1/2
f 49/1/2 46/1/2 50/1/2
f 47/2/2 48/2/2 51/2/2
f 51/2/2 48/2/2 52/2/2
f 49/2/2 50/2/2 53/2/2
f 53/2/2 50/2/2 54/2/2
f 55/1/2 56/1/2 57/1/2
f 57/1/2 56/1/2 58/1/2
f 57/2/2 58/2/2 59/2/2
f 59/2/2 58/2/2 60/2/2
f 64/1/3 62/1/3 61/1/3
f 65/2/3 63/2/3 62/2/3
f 65/1/3 62/1/3 64/1/3
f 66/2/3 63/2/3 65/2/3
f 70/1/3 68/1/3 67/1/3
f 71/2/3 69/2/3 68/2/3
f 71/1/3 68/1/3 70/1/3
f 72/2/3 69/2/3 71/2/3
f 76/1/3 74/1/3 73/1/3
f 77/2/3 75/2/3 74/2/3
f 77/1/3 74/1/3 76/1/3
f 78/2/3 75/2/3 77/2/3
f 82/1/3 80/1/3 79/1/3
f 83/2/3 81/2/3 80/2/3
f 83/1/3 80/1/3 82/1/3
f 84/2/3 81/2/3 83/2/3
f 88/1/3 86/1/3 85/1/3
f 89/2/3 87/2/3 86/2/3
f 89/1/3 86/1/3 88/1/3
f 90/2/3 87/2/3 89/2/3
f 91/1/4 92/1/4 94/1/4
f 92/2/4 93/2/4 95/2/4
f 94/1/4 92/1/4 95/1/4
f 95/2/4 93/2/4 96/2/4
f 97/1/4 98/1/4 100/1/4
f 98/2/4 99/2/4 101/2/4
f 100/1/4 98/1/4 101/1/4
f 101/2/4 99/2/4 102/2/4
f 103/1/4 104/1/4 106/1/4
f 104/2/4 105/2/4 107/2/4
f 106/1/4 104/1/4 107/1/4
f 107/2/4 105/2/4 108/2/4
f 109/1/4 110/1/4 112/1/4
f 110/2/4 111/2/4 113/2/4
f 112/1/4 110/1/4 113/1/4
f 113/2/4 111/2/4 114/2/4
f 115/1/4 116/1/4 118/1/4
f 116/2/4 117/2/4 119/2/4
f 118/1/4 116/1/4 119/1/4
f 119/2/4 117/2/4 120/2/4
f 124/1/5 122/1/5 121/1/5
f 125/1/5 122/1/5 124/1/5
f 128/1/5 124/1/5 123/1/5
f 128/1/5 126/1/5 125/1/5
f 128/1/5 125/1/5 124/1/5
f 129/1/5 126/1/5 128/1/5
f 131/1/5 128/1/5 127/1/5
f 131/1/5 130/1/5 129/1/5
f 131/1/5 129/1/5 128/1/5
f 132/1/5 130/1/5 131/1/5
f 133/1/5 130/1/5 132/1/5
f 134/1/5 130/1/5 133/1/5
f 135/1/5 133/1/5 132/1/5
f 136/1/5 133/1/5 135/1/5
f 137/1/5 133/1/5 136/1/5
f 138/1/5 133/1/5 137/1/5
f 139/1/5 137/1/5 136/1/5
f 140/1/5 137/1/5 139/1/5
f 141/2/6 142/2/6 144/2/6
f 144/2/6 142/2/6 145/2/6
f 143/2/6 144/2/6 148/2/6
f 145/2/6 146/2/6 148/2/6
f 144/2/6 145/2/6 148/2/6
f 148/2/6 146/2/6 149/2/6
f 147/2/6 148/2/6 151/2/6
f 149/2/6 150/2/6 151/2/6
f 148/2/6 149/2/6 151/2/6
f 151/2/6 150/2/6 152/2/6
f 152/2/6 150/2/6 153/2/6
f 153/2/6 150/2/6 154/2/6
f 152/2/6 153/2/6 155/2/6
f 155/2/6 153/2/6 156/2/6
f 156/2/6 153/2/6 157/2/6
f 157/2/6 153/2/6 158/2/6
f 156/2/6 157/2/6 159/2/6
f 159/2/6 157/2/6 160/2/6
